<svg width="1307" height="591" viewBox="0 0 1307 591" fill="none" xmlns="http://www.w3.org/2000/svg">
<g opacity="0.66">
<mask id="mask0_18_2" style="mask-type:alpha" maskUnits="userSpaceOnUse" x="10" y="201" width="1294" height="390">
<path d="M10 371.073L25.3663 367.669C40.8224 364.008 72.0042 357.585 102.557 336.84C133.2 316.479 163.663 281.796 195.114 278.584C225.667 275.373 256.219 302.349 287.671 295.733C318.134 288.861 348.776 247.755 379.329 234.074C410.511 220.136 441.333 234.267 471.886 244.35C502.978 254.82 533.89 261.243 564.443 264.904C595.355 268.308 626.447 268.308 657 258.031C687.822 247.755 719.004 227.201 749.557 213.521C780.2 199.583 810.663 193.16 842.114 220.329C872.667 247.755 903.219 309.414 934.671 323.095C965.134 337.032 995.776 302.349 1026.33 281.988C1057.51 261.243 1088.33 254.82 1118.89 254.627C1149.98 254.82 1180.89 261.243 1211.44 271.712C1242.36 281.796 1273.45 295.926 1288.72 302.542L1304 309.414V550C1304 572.644 1285.64 591 1263 591H10V371.073Z" fill="#2F344F"/>
</mask>
<g mask="url(#mask0_18_2)">
<rect x="89" y="166.976" width="1" height="334.841" fill="#272C44"/>
<rect x="162" y="166.976" width="1" height="334.841" fill="#272C44"/>
<rect x="235" y="166.976" width="1" height="334.841" fill="#272C44"/>
<rect x="308" y="166.976" width="1" height="334.841" fill="#272C44"/>
<rect x="381" y="166.976" width="1" height="334.841" fill="#272C44"/>
<rect x="454" y="166.976" width="1" height="334.841" fill="#272C44"/>
<rect x="527" y="166.976" width="1" height="334.841" fill="#272C44"/>
<rect x="601" y="166.976" width="1" height="334.841" fill="#272C44"/>
<rect x="675" y="166.976" width="1" height="334.841" fill="#272C44"/>
<rect x="749" y="166.976" width="1" height="334.841" fill="#272C44"/>
<rect x="823" y="166.976" width="1" height="334.841" fill="#272C44"/>
<rect x="88" y="166.976" width="1" height="334.841" fill="#474E73"/>
<rect x="161" y="166.976" width="1" height="334.841" fill="#474E73"/>
<rect x="234" y="166.976" width="1" height="334.841" fill="#474E73"/>
<rect x="307" y="166.976" width="1" height="334.841" fill="#474E73"/>
<rect x="380" y="166.976" width="1" height="334.841" fill="#474E73"/>
<rect x="453" y="166.976" width="1" height="334.841" fill="#474E73"/>
<rect x="526" y="166.976" width="1" height="334.841" fill="#474E73"/>
<rect x="600" y="166.976" width="1" height="334.841" fill="#474E73"/>
<rect x="674" y="166.976" width="1" height="334.841" fill="#474E73"/>
<rect x="748" y="166.976" width="1" height="334.841" fill="#474E73"/>
<rect x="822" y="166.976" width="1" height="334.841" fill="#474E73"/>
<rect x="823" y="225.6" width="0.93356" height="734" transform="rotate(90 823 225.6)" fill="#272C44"/>
<rect x="823" y="293.749" width="0.93356" height="734" transform="rotate(90 823 293.749)" fill="#272C44"/>
<rect x="823" y="361.899" width="0.93356" height="734" transform="rotate(90 823 361.899)" fill="#272C44"/>
<rect x="823" y="430.983" width="0.93356" height="734" transform="rotate(90 823 430.983)" fill="#272C44"/>
<rect x="823" y="500.066" width="0.93356" height="734" transform="rotate(90 823 500.066)" fill="#272C44"/>
<rect x="823" y="226.599" width="0.934007" height="734" transform="rotate(90 823 226.599)" fill="#474E73"/>
<rect x="823" y="294.749" width="0.934007" height="734" transform="rotate(90 823 294.749)" fill="#474E73"/>
<rect x="823" y="362.899" width="0.934007" height="734" transform="rotate(90 823 362.899)" fill="#474E73"/>
<rect x="823" y="431.983" width="0.934007" height="734" transform="rotate(90 823 431.983)" fill="#474E73"/>
<rect x="823" y="501.066" width="0.934007" height="734" transform="rotate(90 823 501.066)" fill="#474E73"/>
</g>
</g>
<g opacity="0.36" filter="url(#filter0_i_18_2)">
<path d="M10 371.073L25.3663 367.669C40.8224 364.008 72.0042 357.585 102.557 336.84C133.2 316.479 163.663 281.796 195.114 278.584C225.667 275.373 256.219 302.349 287.671 295.733C318.134 288.861 348.776 247.755 379.329 234.074C410.511 220.136 441.333 234.267 471.886 244.35C502.978 254.82 533.89 261.243 564.443 264.904C595.355 268.308 626.447 268.308 657 258.031C687.822 247.755 719.004 227.201 749.557 213.521C780.2 199.583 810.663 193.16 842.114 220.329C872.667 247.755 903.219 309.414 934.671 323.095C965.134 337.032 995.776 302.349 1026.33 281.988C1057.51 261.243 1088.33 254.82 1118.89 254.627C1149.98 254.82 1180.89 261.243 1211.44 271.712C1242.36 281.796 1273.45 295.926 1288.72 302.542L1304 309.414V550C1304 572.644 1285.64 591 1263 591H10V371.073Z" fill="url(#paint0_linear_18_2)"/>
</g>
<path d="M10 371.073L25.3663 367.669C40.8224 364.008 72.0042 357.585 102.557 336.84C133.2 316.479 163.663 281.796 195.114 278.584C225.667 275.373 256.219 302.349 287.671 295.733C318.134 288.861 348.776 247.755 379.329 234.074C410.511 220.136 441.333 234.267 471.886 244.35C502.978 254.82 533.89 261.243 564.443 264.904C595.355 268.308 626.447 268.308 657 258.031C687.822 247.755 719.004 227.201 749.557 213.521C780.2 199.583 810.663 193.16 842.114 220.329C872.667 247.755 903.219 309.414 934.671 323.095C965.134 337.032 995.776 302.349 1026.33 281.988C1057.51 261.243 1088.33 254.82 1118.89 254.627C1149.98 254.82 1180.89 261.243 1211.44 271.712C1242.36 281.796 1273.45 295.926 1288.72 302.542L1304 309.414V0C872.667 0 441.333 0 10 0V371.073Z" fill="url(#paint1_linear_18_2)"/>
<g filter="url(#filter1_f_18_2)">
<path d="M10 371.073L25.3663 367.669C40.8224 364.008 72.0042 357.585 102.557 336.84C133.2 316.479 163.663 281.796 195.114 278.584C225.667 275.373 256.219 302.349 287.671 295.733C318.134 288.861 348.776 247.755 379.329 234.074C410.511 220.136 441.333 234.267 471.886 244.35C502.978 254.82 533.89 261.243 564.443 264.904C595.355 268.308 626.447 268.308 657 258.031C687.822 247.755 719.004 227.201 749.557 213.521C780.2 199.583 810.663 193.16 842.114 220.329C872.667 247.755 903.219 309.414 934.671 323.095C965.134 337.032 995.776 302.349 1026.33 281.988C1057.51 261.243 1088.33 254.82 1118.89 254.627C1149.98 254.82 1180.89 261.243 1211.44 271.712C1242.36 281.796 1273.45 295.926 1288.72 302.542L1304 309.414" stroke="url(#paint2_linear_18_2)" stroke-width="2" stroke-linejoin="bevel"/>
</g>
<g filter="url(#filter2_f_18_2)">
<path d="M10 370.361L25.3663 366.957C40.8224 363.296 72.0042 356.873 102.557 336.127C133.2 315.767 163.663 281.084 195.114 277.872C225.667 274.661 256.219 301.637 287.671 295.021C318.134 288.149 348.776 247.042 379.329 233.362C410.511 219.424 441.333 233.554 471.886 243.638C502.978 254.108 533.89 260.53 564.443 264.192C595.355 267.596 626.447 267.596 657 257.319C687.822 247.042 719.004 226.489 749.557 212.809C780.2 198.871 810.663 192.448 842.114 219.617C872.667 247.042 903.219 308.702 934.671 322.383C965.134 336.32 995.776 301.637 1026.33 281.276C1057.51 260.53 1088.33 254.108 1118.89 253.915C1149.98 254.108 1180.89 260.53 1211.44 271C1242.36 281.084 1273.45 295.214 1288.72 301.829L1304 308.702" stroke="url(#paint3_linear_18_2)" stroke-linejoin="bevel"/>
</g>
<path opacity="0.32" d="M25.3339 367.711L10 371.112V514H749V213C718.511 226.668 686.397 247.912 655.64 258.179C625.151 268.446 594.125 268.446 563.277 265.045C532.789 261.387 501.942 254.971 470.915 244.511C440.426 234.437 409.669 220.321 378.553 234.245C348.064 247.912 317.486 288.979 287.087 295.845C255.702 302.454 225.213 275.504 194.725 278.712C163.339 281.921 132.941 316.571 102.362 336.911C71.8738 357.637 40.7576 364.054 25.3339 367.711Z" fill="url(#paint4_radial_18_2)"/>
<g opacity="0.22" filter="url(#filter3_f_18_2)">
<path d="M10 369.649L25.3663 366.245C40.8224 362.584 72.0042 356.161 102.557 335.415C133.2 315.055 163.663 280.372 195.114 277.16C225.667 273.949 256.219 300.925 287.671 294.309C318.134 287.437 348.776 246.33 379.329 232.65C410.511 218.712 441.333 232.842 471.886 242.926C502.978 253.396 533.89 259.818 564.443 263.479C595.355 266.884 626.447 266.884 657 256.607C687.822 246.33 719.004 225.777 749.557 212.097" stroke="url(#paint5_linear_18_2)" stroke-width="4" stroke-linecap="round" stroke-linejoin="bevel"/>
</g>
<g filter="url(#filter4_i_18_2)">
<path d="M10 369.649L25.3663 366.245C40.8224 362.584 72.0042 356.161 102.557 335.415C133.2 315.055 163.663 280.372 195.114 277.16C225.667 273.949 256.219 300.925 287.671 294.309C318.134 287.437 348.776 246.33 379.329 232.65C410.511 218.712 441.333 232.842 471.886 242.926C502.978 253.396 533.89 259.818 564.443 263.479C595.355 266.884 626.447 266.884 657 256.607C687.822 246.33 719.004 225.777 749.557 212.097" stroke="url(#paint6_linear_18_2)" stroke-width="4" stroke-linecap="round" stroke-linejoin="bevel"/>
</g>
<rect x="748" y="206" width="1" height="296" fill="url(#paint7_linear_18_2)"/>
<g filter="url(#filter5_bdi_18_2)">
<rect x="586" y="251" width="139" height="70" rx="20" fill="url(#paint8_linear_18_2)"/>
<rect x="586.5" y="251.5" width="138" height="69" rx="19.5" stroke="url(#paint9_linear_18_2)"/>
<rect x="586.5" y="251.5" width="138" height="69" rx="19.5" stroke="url(#paint10_linear_18_2)"/>
</g>
<g filter="url(#filter6_d_18_2)">
<path d="M626.568 286.34C627.486 285.782 628.116 284.864 628.116 283.604C628.116 281.678 626.532 280.04 624.138 280.04C621.312 280.04 619.62 281.93 619.62 284.234H621.168C621.168 282.632 622.374 281.498 624.066 281.498C625.614 281.498 626.586 282.416 626.586 283.676C626.586 284.882 625.686 285.656 624.084 285.656H623.094V287.132H624.084C625.668 287.132 627.126 287.69 627.126 289.31C627.126 290.66 626.064 291.722 624.246 291.722C622.554 291.722 621.168 290.678 621.168 288.986H619.62C619.62 291.29 621.492 293.18 624.318 293.18C627.072 293.18 628.656 291.416 628.656 289.4C628.656 287.87 627.738 286.88 626.568 286.34ZM635.142 284.45C634.854 284.45 634.584 284.486 634.314 284.522L637.176 280.22H635.394L631.362 286.394C630.876 287.096 630.606 287.942 630.606 288.824C630.606 291.182 632.532 293.18 635.142 293.18C637.716 293.18 639.642 291.182 639.642 288.824C639.642 286.484 637.716 284.45 635.142 284.45ZM635.142 291.722C633.414 291.722 632.154 290.372 632.154 288.824C632.154 287.276 633.414 285.908 635.142 285.908C636.834 285.908 638.112 287.276 638.112 288.824C638.112 290.372 636.834 291.722 635.142 291.722ZM643.037 293.18C643.541 293.18 643.919 292.784 643.919 292.298C643.919 291.794 643.541 291.416 643.037 291.416C642.551 291.416 642.155 291.794 642.155 292.298C642.155 292.784 642.551 293.18 643.037 293.18ZM656.19 284.396C656.19 282.038 654.264 280.04 651.654 280.04C649.08 280.04 647.154 282.038 647.154 284.396C647.154 286.736 649.08 288.77 651.654 288.77C651.942 288.77 652.212 288.752 652.482 288.698L649.62 293H651.42L655.506 286.736H655.488C655.938 286.052 656.19 285.242 656.19 284.396ZM648.702 284.396C648.702 282.848 649.962 281.498 651.654 281.498C653.382 281.498 654.66 282.848 654.66 284.396C654.66 285.944 653.382 287.294 651.654 287.294C649.962 287.294 648.702 285.944 648.702 284.396ZM667.34 284.036C667.34 281.624 665.54 280.04 663.164 280.04C660.392 280.04 658.448 281.876 658.448 284.18H659.996C659.996 282.65 661.256 281.498 663.146 281.498C664.676 281.498 665.792 282.542 665.792 283.982C665.792 287.348 658.448 287.798 658.448 291.542V293H667.34V291.542H660.014C660.014 288.914 667.34 288.446 667.34 284.036ZM674.562 280.04C672.096 280.04 669.882 281.768 669.882 284.558V288.662C669.882 291.452 672.096 293.18 674.562 293.18C677.028 293.18 679.242 291.452 679.242 288.662V284.558C679.242 281.768 677.028 280.04 674.562 280.04ZM674.562 291.722C672.834 291.722 671.43 290.462 671.43 288.662V284.558C671.43 282.758 672.834 281.498 674.562 281.498C676.29 281.498 677.694 282.758 677.694 284.558V288.662C677.694 290.462 676.29 291.722 674.562 291.722ZM690.873 289.94C690.873 287.942 689.361 286.88 687.129 285.728V281.534C688.101 281.678 688.785 282.47 688.875 283.532H690.423C690.315 281.714 689.037 280.22 687.129 280.058V278.78H686.607V280.04C684.663 280.112 683.133 281.372 683.133 283.172C683.133 285.08 684.339 285.908 686.589 287.114C686.589 287.114 686.607 287.114 686.607 287.132V291.704C685.509 291.578 684.501 290.84 684.411 289.436H682.863C682.971 291.452 684.465 293.018 686.607 293.162V294.44H687.129V293.18C689.271 293.126 690.873 291.902 690.873 289.94ZM684.681 283.244C684.681 282.254 685.527 281.57 686.607 281.498V285.476C685.473 284.9 684.681 284.414 684.681 283.244ZM687.129 291.722V287.384C688.407 288.05 689.343 288.698 689.343 289.886C689.343 290.912 688.515 291.668 687.129 291.722Z" fill="#D2D6EF"/>
<path d="M626.568 286.34L626.516 286.255L626.356 286.352L626.526 286.431L626.568 286.34ZM619.62 284.234H619.52V284.334H619.62V284.234ZM621.168 284.234V284.334H621.268V284.234H621.168ZM623.094 285.656V285.556H622.994V285.656H623.094ZM623.094 287.132H622.994V287.232H623.094V287.132ZM621.168 288.986H621.268V288.886H621.168V288.986ZM619.62 288.986V288.886H619.52V288.986H619.62ZM626.62 286.425C627.564 285.851 628.216 284.903 628.216 283.604H628.016C628.016 284.825 627.408 285.713 626.516 286.255L626.62 286.425ZM628.216 283.604C628.216 281.617 626.581 279.94 624.138 279.94V280.14C626.483 280.14 628.016 281.739 628.016 283.604H628.216ZM624.138 279.94C622.702 279.94 621.546 280.421 620.749 281.202C619.952 281.982 619.52 283.057 619.52 284.234H619.72C619.72 283.107 620.134 282.085 620.889 281.344C621.645 280.604 622.748 280.14 624.138 280.14V279.94ZM619.62 284.334H621.168V284.134H619.62V284.334ZM621.268 284.234C621.268 282.693 622.424 281.598 624.066 281.598V281.398C622.324 281.398 621.068 282.571 621.068 284.234H621.268ZM624.066 281.598C624.82 281.598 625.425 281.822 625.84 282.189C626.254 282.556 626.486 283.073 626.486 283.676H626.686C626.686 283.019 626.432 282.447 625.973 282.04C625.515 281.633 624.86 281.398 624.066 281.398V281.598ZM626.486 283.676C626.486 284.252 626.272 284.717 625.873 285.041C625.471 285.366 624.87 285.556 624.084 285.556V285.756C624.9 285.756 625.55 285.559 625.999 285.196C626.45 284.831 626.686 284.306 626.686 283.676H626.486ZM624.084 285.556H623.094V285.756H624.084V285.556ZM622.994 285.656V287.132H623.194V285.656H622.994ZM623.094 287.232H624.084V287.032H623.094V287.232ZM624.084 287.232C624.867 287.232 625.607 287.37 626.147 287.699C626.681 288.024 627.026 288.537 627.026 289.31H627.226C627.226 288.463 626.842 287.887 626.251 287.528C625.666 287.173 624.885 287.032 624.084 287.032V287.232ZM627.026 289.31C627.026 289.957 626.772 290.533 626.302 290.947C625.831 291.362 625.136 291.622 624.246 291.622V291.822C625.174 291.822 625.919 291.551 626.434 291.097C626.949 290.643 627.226 290.013 627.226 289.31H627.026ZM624.246 291.622C623.42 291.622 622.674 291.367 622.137 290.912C621.601 290.459 621.268 289.802 621.268 288.986H621.068C621.068 289.862 621.428 290.573 622.008 291.065C622.587 291.555 623.38 291.822 624.246 291.822V291.622ZM621.168 288.886H619.62V289.086H621.168V288.886ZM619.52 288.986C619.52 291.352 621.444 293.28 624.318 293.28V293.08C621.54 293.08 619.72 291.228 619.72 288.986H619.52ZM624.318 293.28C627.121 293.28 628.756 291.477 628.756 289.4H628.556C628.556 291.355 627.023 293.08 624.318 293.08V293.28ZM628.756 289.4C628.756 287.821 627.805 286.801 626.61 286.249L626.526 286.431C627.671 286.959 628.556 287.919 628.556 289.4H628.756ZM634.314 284.522L634.23 284.467L634.108 284.65L634.327 284.621L634.314 284.522ZM637.176 280.22L637.259 280.275L637.362 280.12H637.176V280.22ZM635.394 280.22V280.12H635.339L635.31 280.165L635.394 280.22ZM631.362 286.394L631.444 286.451L631.445 286.449L631.362 286.394ZM635.142 284.35C634.846 284.35 634.57 284.387 634.3 284.423L634.327 284.621C634.598 284.585 634.861 284.55 635.142 284.55V284.35ZM634.397 284.577L637.259 280.275L637.092 280.165L634.23 284.467L634.397 284.577ZM637.176 280.12H635.394V280.32H637.176V280.12ZM635.31 280.165L631.278 286.339L631.445 286.449L635.477 280.275L635.31 280.165ZM631.279 286.337C630.782 287.056 630.506 287.922 630.506 288.824H630.706C630.706 287.962 630.969 287.136 631.444 286.451L631.279 286.337ZM630.506 288.824C630.506 291.239 632.478 293.28 635.142 293.28V293.08C632.585 293.08 630.706 291.125 630.706 288.824H630.506ZM635.142 293.28C637.77 293.28 639.742 291.238 639.742 288.824H639.542C639.542 291.126 637.661 293.08 635.142 293.08V293.28ZM639.742 288.824C639.742 286.429 637.771 284.35 635.142 284.35V284.55C637.661 284.55 639.542 286.539 639.542 288.824H639.742ZM635.142 291.622C633.469 291.622 632.254 290.317 632.254 288.824H632.054C632.054 290.427 633.358 291.822 635.142 291.822V291.622ZM632.254 288.824C632.254 287.33 633.47 286.008 635.142 286.008V285.808C633.358 285.808 632.054 287.222 632.054 288.824H632.254ZM635.142 286.008C636.778 286.008 638.012 287.33 638.012 288.824H638.212C638.212 287.222 636.89 285.808 635.142 285.808V286.008ZM638.012 288.824C638.012 290.317 636.778 291.622 635.142 291.622V291.822C636.889 291.822 638.212 290.427 638.212 288.824H638.012ZM643.037 293.28C643.598 293.28 644.019 292.838 644.019 292.298H643.819C643.819 292.73 643.485 293.08 643.037 293.08V293.28ZM644.019 292.298C644.019 291.739 643.596 291.316 643.037 291.316V291.516C643.486 291.516 643.819 291.849 643.819 292.298H644.019ZM643.037 291.316C642.497 291.316 642.055 291.737 642.055 292.298H642.255C642.255 291.851 642.605 291.516 643.037 291.516V291.316ZM642.055 292.298C642.055 292.839 642.496 293.28 643.037 293.28V293.08C642.606 293.08 642.255 292.729 642.255 292.298H642.055ZM652.482 288.698L652.566 288.753L652.699 288.553L652.463 288.6L652.482 288.698ZM649.62 293L649.537 292.945L649.434 293.1H649.62V293ZM651.42 293V293.1H651.475L651.504 293.055L651.42 293ZM655.506 286.736L655.59 286.791L655.691 286.636H655.506V286.736ZM655.488 286.736L655.405 286.681L655.303 286.836H655.488V286.736ZM656.29 284.396C656.29 281.981 654.318 279.94 651.654 279.94V280.14C654.211 280.14 656.09 282.095 656.09 284.396H656.29ZM651.654 279.94C649.026 279.94 647.054 281.982 647.054 284.396H647.254C647.254 282.094 649.135 280.14 651.654 280.14V279.94ZM647.054 284.396C647.054 286.791 649.025 288.87 651.654 288.87V288.67C649.135 288.67 647.254 286.681 647.254 284.396H647.054ZM651.654 288.87C651.947 288.87 652.223 288.852 652.502 288.796L652.463 288.6C652.201 288.652 651.938 288.67 651.654 288.67V288.87ZM652.399 288.643L649.537 292.945L649.704 293.055L652.566 288.753L652.399 288.643ZM649.62 293.1H651.42V292.9H649.62V293.1ZM651.504 293.055L655.59 286.791L655.423 286.681L651.337 292.945L651.504 293.055ZM655.506 286.636H655.488V286.836H655.506V286.636ZM655.572 286.791C656.032 286.091 656.29 285.262 656.29 284.396H656.09C656.09 285.222 655.844 286.013 655.405 286.681L655.572 286.791ZM648.802 284.396C648.802 282.902 650.018 281.598 651.654 281.598V281.398C649.906 281.398 648.602 282.794 648.602 284.396H648.802ZM651.654 281.598C653.328 281.598 654.56 282.904 654.56 284.396H654.76C654.76 282.792 653.437 281.398 651.654 281.398V281.598ZM654.56 284.396C654.56 285.888 653.328 287.194 651.654 287.194V287.394C653.437 287.394 654.76 286 654.76 284.396H654.56ZM651.654 287.194C650.018 287.194 648.802 285.89 648.802 284.396H648.602C648.602 285.998 649.906 287.394 651.654 287.394V287.194ZM658.448 284.18H658.348V284.28H658.448V284.18ZM659.996 284.18V284.28H660.096V284.18H659.996ZM658.448 293H658.348V293.1H658.448V293ZM667.34 293V293.1H667.44V293H667.34ZM667.34 291.542H667.44V291.442H667.34V291.542ZM660.014 291.542H659.914V291.642H660.014V291.542ZM667.44 284.036C667.44 282.804 666.98 281.778 666.211 281.06C665.444 280.344 664.374 279.94 663.164 279.94V280.14C664.33 280.14 665.348 280.528 666.075 281.207C666.8 281.884 667.24 282.856 667.24 284.036H667.44ZM663.164 279.94C660.347 279.94 658.348 281.811 658.348 284.18H658.548C658.548 281.941 660.437 280.14 663.164 280.14V279.94ZM658.448 284.28H659.996V284.08H658.448V284.28ZM660.096 284.18C660.096 282.718 661.298 281.598 663.146 281.598V281.398C661.214 281.398 659.896 282.582 659.896 284.18H660.096ZM663.146 281.598C664.627 281.598 665.692 282.603 665.692 283.982H665.892C665.892 282.481 664.725 281.398 663.146 281.398V281.598ZM665.692 283.982C665.692 284.781 665.258 285.415 664.58 285.98C663.901 286.546 662.993 287.03 662.072 287.532C661.156 288.032 660.227 288.55 659.528 289.18C658.827 289.813 658.348 290.568 658.348 291.542H658.548C658.548 290.644 658.987 289.939 659.662 289.329C660.341 288.717 661.248 288.21 662.168 287.708C663.082 287.209 664.011 286.715 664.709 286.134C665.408 285.55 665.892 284.866 665.892 283.982H665.692ZM658.348 291.542V293H658.548V291.542H658.348ZM658.448 293.1H667.34V292.9H658.448V293.1ZM667.44 293V291.542H667.24V293H667.44ZM667.34 291.442H660.014V291.642H667.34V291.442ZM660.114 291.542C660.114 290.937 660.534 290.441 661.216 289.962C661.897 289.485 662.802 289.047 663.725 288.545C665.55 287.552 667.44 286.307 667.44 284.036H667.24C667.24 286.175 665.467 287.369 663.629 288.369C662.72 288.864 661.794 289.312 661.101 289.799C660.409 290.285 659.914 290.833 659.914 291.542H660.114ZM674.562 279.94C672.05 279.94 669.782 281.704 669.782 284.558H669.982C669.982 281.832 672.142 280.14 674.562 280.14V279.94ZM669.782 284.558V288.662H669.982V284.558H669.782ZM669.782 288.662C669.782 291.516 672.05 293.28 674.562 293.28V293.08C672.142 293.08 669.982 291.388 669.982 288.662H669.782ZM674.562 293.28C677.074 293.28 679.342 291.516 679.342 288.662H679.142C679.142 291.388 676.982 293.08 674.562 293.08V293.28ZM679.342 288.662V284.558H679.142V288.662H679.342ZM679.342 284.558C679.342 281.704 677.074 279.94 674.562 279.94V280.14C676.982 280.14 679.142 281.832 679.142 284.558H679.342ZM674.562 291.622C672.885 291.622 671.53 290.402 671.53 288.662H671.33C671.33 290.522 672.784 291.822 674.562 291.822V291.622ZM671.53 288.662V284.558H671.33V288.662H671.53ZM671.53 284.558C671.53 282.818 672.885 281.598 674.562 281.598V281.398C672.784 281.398 671.33 282.698 671.33 284.558H671.53ZM674.562 281.598C676.24 281.598 677.594 282.818 677.594 284.558H677.794C677.794 282.698 676.341 281.398 674.562 281.398V281.598ZM677.594 284.558V288.662H677.794V284.558H677.594ZM677.594 288.662C677.594 290.402 676.24 291.622 674.562 291.622V291.822C676.341 291.822 677.794 290.522 677.794 288.662H677.594ZM687.129 285.728H687.029V285.789L687.083 285.817L687.129 285.728ZM687.129 281.534L687.144 281.435L687.029 281.418V281.534H687.129ZM688.875 283.532L688.775 283.54L688.783 283.632H688.875V283.532ZM690.423 283.532V283.632H690.529L690.523 283.526L690.423 283.532ZM687.129 280.058H687.029V280.15L687.121 280.158L687.129 280.058ZM687.129 278.78H687.229V278.68H687.129V278.78ZM686.607 278.78V278.68H686.507V278.78H686.607ZM686.607 280.04L686.611 280.14L686.707 280.136V280.04H686.607ZM686.589 287.114L686.542 287.202L686.564 287.214H686.589V287.114ZM686.607 291.704L686.596 291.803L686.707 291.816V291.704H686.607ZM684.411 289.436L684.511 289.43L684.505 289.336H684.411V289.436ZM682.863 289.436V289.336H682.757L682.763 289.441L682.863 289.436ZM686.607 293.162H686.707V293.068L686.614 293.062L686.607 293.162ZM686.607 294.44H686.507V294.54H686.607V294.44ZM687.129 294.44V294.54H687.229V294.44H687.129ZM687.129 293.18L687.126 293.08L687.029 293.082V293.18H687.129ZM686.607 281.498H686.707V281.391L686.6 281.398L686.607 281.498ZM686.607 285.476L686.562 285.565L686.707 285.639V285.476H686.607ZM687.129 291.722H687.029V291.826L687.133 291.822L687.129 291.722ZM687.129 287.384L687.175 287.295L687.029 287.219V287.384H687.129ZM690.973 289.94C690.973 288.911 690.582 288.121 689.909 287.446C689.24 286.775 688.291 286.215 687.175 285.639L687.083 285.817C688.199 286.393 689.122 286.94 689.767 287.587C690.408 288.231 690.773 288.971 690.773 289.94H690.973ZM687.229 285.728V281.534H687.029V285.728H687.229ZM687.114 281.633C688.034 281.769 688.689 282.518 688.775 283.54L688.975 283.524C688.881 282.422 688.168 281.587 687.144 281.435L687.114 281.633ZM688.875 283.632H690.423V283.432H688.875V283.632ZM690.523 283.526C690.412 281.664 689.1 280.125 687.137 279.958L687.121 280.158C688.974 280.315 690.218 281.764 690.323 283.538L690.523 283.526ZM687.229 280.058V278.78H687.029V280.058H687.229ZM687.129 278.68H686.607V278.88H687.129V278.68ZM686.507 278.78V280.04H686.707V278.78H686.507ZM686.603 279.94C684.622 280.013 683.033 281.303 683.033 283.172H683.233C683.233 281.441 684.704 280.211 686.611 280.14L686.603 279.94ZM683.033 283.172C683.033 284.152 683.345 284.861 683.946 285.476C684.541 286.085 685.418 286.6 686.542 287.202L686.636 287.026C685.51 286.422 684.659 285.92 684.089 285.336C683.524 284.759 683.233 284.1 683.233 283.172H683.033ZM686.589 287.114C686.589 287.214 686.589 287.214 686.589 287.214C686.589 287.214 686.589 287.214 686.589 287.214C686.589 287.214 686.589 287.214 686.589 287.214C686.588 287.214 686.588 287.214 686.588 287.214C686.588 287.214 686.588 287.214 686.587 287.214C686.587 287.214 686.586 287.214 686.586 287.214C686.585 287.214 686.584 287.214 686.583 287.214C686.58 287.214 686.578 287.213 686.575 287.213C686.571 287.212 686.562 287.21 686.553 287.206C686.544 287.201 686.531 287.192 686.521 287.177C686.511 287.161 686.507 287.145 686.507 287.132H686.707C686.707 287.11 686.701 287.087 686.687 287.066C686.674 287.046 686.657 287.034 686.643 287.027C686.629 287.02 686.616 287.017 686.608 287.016C686.604 287.015 686.6 287.015 686.597 287.014C686.595 287.014 686.594 287.014 686.593 287.014C686.592 287.014 686.591 287.014 686.591 287.014C686.59 287.014 686.59 287.014 686.59 287.014C686.59 287.014 686.59 287.014 686.589 287.014C686.589 287.014 686.589 287.014 686.589 287.014C686.589 287.014 686.589 287.014 686.589 287.014C686.589 287.014 686.589 287.014 686.589 287.114ZM686.507 287.132V291.704H686.707V287.132H686.507ZM686.618 291.605C685.558 291.483 684.597 290.776 684.511 289.43L684.311 289.442C684.405 290.904 685.46 291.673 686.596 291.803L686.618 291.605ZM684.411 289.336H682.863V289.536H684.411V289.336ZM682.763 289.441C682.874 291.508 684.408 293.114 686.6 293.262L686.614 293.062C684.522 292.922 683.068 291.396 682.963 289.431L682.763 289.441ZM686.507 293.162V294.44H686.707V293.162H686.507ZM686.607 294.54H687.129V294.34H686.607V294.54ZM687.229 294.44V293.18H687.029V294.44H687.229ZM687.132 293.28C688.22 293.253 689.179 292.928 689.868 292.352C690.559 291.775 690.973 290.951 690.973 289.94H690.773C690.773 290.891 690.386 291.66 689.74 292.199C689.093 292.739 688.18 293.053 687.126 293.08L687.132 293.28ZM684.781 283.244C684.781 282.324 685.567 281.668 686.614 281.598L686.6 281.398C685.487 281.472 684.581 282.184 684.581 283.244H684.781ZM686.507 281.498V285.476H686.707V281.498H686.507ZM686.652 285.387C686.084 285.098 685.616 284.839 685.289 284.512C684.968 284.191 684.781 283.802 684.781 283.244H684.581C684.581 283.856 684.79 284.295 685.148 284.653C685.501 285.006 685.996 285.278 686.562 285.565L686.652 285.387ZM687.229 291.722V287.384H687.029V291.722H687.229ZM687.083 287.473C687.721 287.805 688.263 288.128 688.645 288.51C689.023 288.888 689.243 289.323 689.243 289.886H689.443C689.443 289.261 689.195 288.778 688.786 288.369C688.38 287.963 687.815 287.629 687.175 287.295L687.083 287.473ZM689.243 289.886C689.243 290.37 689.049 290.788 688.691 291.092C688.332 291.399 687.801 291.596 687.125 291.622L687.133 291.822C687.843 291.794 688.419 291.586 688.821 291.245C689.223 290.901 689.443 290.428 689.443 289.886H689.243Z" fill="#D2D6EF"/>
</g>
<g opacity="0.32" filter="url(#filter7_d_18_2)">
<path d="M94.012 541.294C93.214 541.294 92.458 541.504 91.828 541.91L92.248 539.194H96.588V538.06H91.24L90.372 543.73H91.548C91.884 542.764 92.92 542.372 93.76 542.372C95.048 542.372 96.098 543.184 96.098 544.668C96.098 546.012 95.02 546.936 93.76 546.936C92.388 546.936 91.478 546.026 91.464 544.878H90.26C90.26 546.614 91.576 548.14 93.774 548.14C95.818 548.14 97.288 546.586 97.288 544.724C97.288 542.596 95.804 541.294 94.012 541.294ZM110.616 538.06V545.97L104.988 538.06H103.784V548H104.988V540.09L110.616 548H111.82V538.06H110.616ZM117.475 548.14C119.631 548.14 121.227 546.488 121.227 544.444C121.227 542.428 119.631 540.776 117.475 540.776C115.333 540.776 113.709 542.428 113.709 544.444C113.709 546.488 115.333 548.14 117.475 548.14ZM117.475 547.006C116.033 547.006 114.913 545.844 114.913 544.444C114.913 543.072 116.033 541.91 117.475 541.91C118.931 541.91 120.023 543.072 120.023 544.444C120.023 545.844 118.931 547.006 117.475 547.006ZM128.131 540.916L125.779 546.754L123.427 540.916H122.083L125.093 548H126.465L129.475 540.916H128.131Z" fill="#D2D6EF"/>
<path d="M91.828 541.91L91.7292 541.895L91.6952 542.115L91.8822 541.994L91.828 541.91ZM92.248 539.194V539.094H92.1623L92.1492 539.179L92.248 539.194ZM96.588 539.194V539.294H96.688V539.194H96.588ZM96.588 538.06H96.688V537.96H96.588V538.06ZM91.24 538.06V537.96H91.1541L91.1412 538.045L91.24 538.06ZM90.372 543.73L90.2732 543.715L90.2555 543.83H90.372V543.73ZM91.548 543.73V543.83H91.6191L91.6424 543.763L91.548 543.73ZM91.464 544.878L91.564 544.877L91.5628 544.778H91.464V544.878ZM90.26 544.878V544.778H90.16V544.878H90.26ZM94.012 541.194C93.1965 541.194 92.4214 541.409 91.7738 541.826L91.8822 541.994C92.4946 541.599 93.2315 541.394 94.012 541.394V541.194ZM91.9268 541.925L92.3468 539.209L92.1492 539.179L91.7292 541.895L91.9268 541.925ZM92.248 539.294H96.588V539.094H92.248V539.294ZM96.688 539.194V538.06H96.488V539.194H96.688ZM96.588 537.96H91.24V538.16H96.588V537.96ZM91.1412 538.045L90.2732 543.715L90.4708 543.745L91.3388 538.075L91.1412 538.045ZM90.372 543.83H91.548V543.63H90.372V543.83ZM91.6424 543.763C91.9584 542.854 92.9406 542.472 93.76 542.472V542.272C92.8994 542.272 91.8096 542.674 91.4536 543.697L91.6424 543.763ZM93.76 542.472C94.3834 542.472 94.9424 542.668 95.3444 543.037C95.7452 543.405 95.998 543.951 95.998 544.668H96.198C96.198 543.901 95.9258 543.299 95.4796 542.89C95.0346 542.482 94.4246 542.272 93.76 542.272V542.472ZM95.998 544.668C95.998 545.95 94.9713 546.836 93.76 546.836V547.036C95.0687 547.036 96.198 546.074 96.198 544.668H95.998ZM93.76 546.836C92.4366 546.836 91.5773 545.964 91.564 544.877L91.364 544.879C91.3787 546.088 92.3394 547.036 93.76 547.036V546.836ZM91.464 544.778H90.26V544.978H91.464V544.778ZM90.16 544.878C90.16 546.67 91.5216 548.24 93.774 548.24V548.04C91.6304 548.04 90.36 546.558 90.36 544.878H90.16ZM93.774 548.24C95.873 548.24 97.388 546.641 97.388 544.724H97.188C97.188 546.531 95.763 548.04 93.774 548.04V548.24ZM97.388 544.724C97.388 542.54 95.8587 541.194 94.012 541.194V541.394C95.7493 541.394 97.188 542.652 97.188 544.724H97.388ZM110.616 538.06V537.96H110.516V538.06H110.616ZM110.616 545.97L110.535 546.028L110.716 546.283V545.97H110.616ZM104.988 538.06L105.07 538.002L105.04 537.96H104.988V538.06ZM103.784 538.06V537.96H103.684V538.06H103.784ZM103.784 548H103.684V548.1H103.784V548ZM104.988 548V548.1H105.088V548H104.988ZM104.988 540.09L105.07 540.032L104.888 539.777V540.09H104.988ZM110.616 548L110.535 548.058L110.565 548.1H110.616V548ZM111.82 548V548.1H111.92V548H111.82ZM111.82 538.06H111.92V537.96H111.82V538.06ZM110.516 538.06V545.97H110.716V538.06H110.516ZM110.698 545.912L105.07 538.002L104.907 538.118L110.535 546.028L110.698 545.912ZM104.988 537.96H103.784V538.16H104.988V537.96ZM103.684 538.06V548H103.884V538.06H103.684ZM103.784 548.1H104.988V547.9H103.784V548.1ZM105.088 548V540.09H104.888V548H105.088ZM104.907 540.148L110.535 548.058L110.698 547.942L105.07 540.032L104.907 540.148ZM110.616 548.1H111.82V547.9H110.616V548.1ZM111.92 548V538.06H111.72V548H111.92ZM111.82 537.96H110.616V538.16H111.82V537.96ZM117.475 548.24C119.687 548.24 121.327 546.543 121.327 544.444H121.127C121.127 546.433 119.576 548.04 117.475 548.04V548.24ZM121.327 544.444C121.327 542.372 119.686 540.676 117.475 540.676V540.876C119.577 540.876 121.127 542.484 121.127 544.444H121.327ZM117.475 540.676C115.279 540.676 113.609 542.372 113.609 544.444H113.809C113.809 542.484 115.387 540.876 117.475 540.876V540.676ZM113.609 544.444C113.609 546.544 115.279 548.24 117.475 548.24V548.04C115.388 548.04 113.809 546.432 113.809 544.444H113.609ZM117.475 546.906C116.09 546.906 115.013 545.79 115.013 544.444H114.813C114.813 545.898 115.977 547.106 117.475 547.106V546.906ZM115.013 544.444C115.013 543.127 116.089 542.01 117.475 542.01V541.81C115.978 541.81 114.813 543.017 114.813 544.444H115.013ZM117.475 542.01C118.875 542.01 119.923 543.126 119.923 544.444H120.123C120.123 543.018 118.988 541.81 117.475 541.81V542.01ZM119.923 544.444C119.923 545.791 118.874 546.906 117.475 546.906V547.106C118.989 547.106 120.123 545.897 120.123 544.444H119.923ZM128.131 540.916V540.816H128.064L128.038 540.879L128.131 540.916ZM125.779 546.754L125.686 546.791L125.779 547.022L125.872 546.791L125.779 546.754ZM123.427 540.916L123.52 540.879L123.495 540.816H123.427V540.916ZM122.083 540.916V540.816H121.932L121.991 540.955L122.083 540.916ZM125.093 548L125.001 548.039L125.027 548.1H125.093V548ZM126.465 548V548.1H126.531L126.557 548.039L126.465 548ZM129.475 540.916L129.567 540.955L129.626 540.816H129.475V540.916ZM128.038 540.879L125.686 546.717L125.872 546.791L128.224 540.953L128.038 540.879ZM125.872 546.717L123.52 540.879L123.334 540.953L125.686 546.791L125.872 546.717ZM123.427 540.816H122.083V541.016H123.427V540.816ZM121.991 540.955L125.001 548.039L125.185 547.961L122.175 540.877L121.991 540.955ZM125.093 548.1H126.465V547.9H125.093V548.1ZM126.557 548.039L129.567 540.955L129.383 540.877L126.373 547.961L126.557 548.039ZM129.475 540.816H128.131V541.016H129.475V540.816Z" fill="#D2D6EF"/>
</g>
<g opacity="0.32" filter="url(#filter8_d_18_2)">
<path d="M215.494 546.866V538.06L212.372 538.816V540.02L214.29 539.544V546.866H211.98V548H217.804V546.866H215.494ZM222.852 537.92C220.934 537.92 219.212 539.264 219.212 541.434V544.626C219.212 546.796 220.934 548.14 222.852 548.14C224.77 548.14 226.492 546.796 226.492 544.626V541.434C226.492 539.264 224.77 537.92 222.852 537.92ZM222.852 547.006C221.508 547.006 220.416 546.026 220.416 544.626V541.434C220.416 540.034 221.508 539.054 222.852 539.054C224.196 539.054 225.288 540.034 225.288 541.434V544.626C225.288 546.026 224.196 547.006 222.852 547.006ZM239.681 538.06V545.97L234.053 538.06H232.849V548H234.053V540.09L239.681 548H240.885V538.06H239.681ZM246.54 548.14C248.696 548.14 250.292 546.488 250.292 544.444C250.292 542.428 248.696 540.776 246.54 540.776C244.398 540.776 242.774 542.428 242.774 544.444C242.774 546.488 244.398 548.14 246.54 548.14ZM246.54 547.006C245.098 547.006 243.978 545.844 243.978 544.444C243.978 543.072 245.098 541.91 246.54 541.91C247.996 541.91 249.088 543.072 249.088 544.444C249.088 545.844 247.996 547.006 246.54 547.006ZM257.196 540.916L254.844 546.754L252.492 540.916H251.148L254.158 548H255.53L258.54 540.916H257.196Z" fill="#D2D6EF"/>
<path d="M215.494 546.866H215.394V546.966H215.494V546.866ZM215.494 538.06H215.594V537.933L215.47 537.963L215.494 538.06ZM212.372 538.816L212.348 538.719L212.272 538.737V538.816H212.372ZM212.372 540.02H212.272V540.148L212.396 540.117L212.372 540.02ZM214.29 539.544H214.39V539.416L214.266 539.447L214.29 539.544ZM214.29 546.866V546.966H214.39V546.866H214.29ZM211.98 546.866V546.766H211.88V546.866H211.98ZM211.98 548H211.88V548.1H211.98V548ZM217.804 548V548.1H217.904V548H217.804ZM217.804 546.866H217.904V546.766H217.804V546.866ZM215.594 546.866V538.06H215.394V546.866H215.594ZM215.47 537.963L212.348 538.719L212.396 538.913L215.518 538.157L215.47 537.963ZM212.272 538.816V540.02H212.472V538.816H212.272ZM212.396 540.117L214.314 539.641L214.266 539.447L212.348 539.923L212.396 540.117ZM214.19 539.544V546.866H214.39V539.544H214.19ZM214.29 546.766H211.98V546.966H214.29V546.766ZM211.88 546.866V548H212.08V546.866H211.88ZM211.98 548.1H217.804V547.9H211.98V548.1ZM217.904 548V546.866H217.704V548H217.904ZM217.804 546.766H215.494V546.966H217.804V546.766ZM222.852 537.82C220.888 537.82 219.112 539.2 219.112 541.434H219.312C219.312 539.328 220.98 538.02 222.852 538.02V537.82ZM219.112 541.434V544.626H219.312V541.434H219.112ZM219.112 544.626C219.112 546.86 220.888 548.24 222.852 548.24V548.04C220.98 548.04 219.312 546.732 219.312 544.626H219.112ZM222.852 548.24C224.816 548.24 226.592 546.86 226.592 544.626H226.392C226.392 546.732 224.724 548.04 222.852 548.04V548.24ZM226.592 544.626V541.434H226.392V544.626H226.592ZM226.592 541.434C226.592 539.2 224.816 537.82 222.852 537.82V538.02C224.724 538.02 226.392 539.328 226.392 541.434H226.592ZM222.852 546.906C221.558 546.906 220.516 545.966 220.516 544.626H220.316C220.316 546.086 221.457 547.106 222.852 547.106V546.906ZM220.516 544.626V541.434H220.316V544.626H220.516ZM220.516 541.434C220.516 540.094 221.558 539.154 222.852 539.154V538.954C221.457 538.954 220.316 539.974 220.316 541.434H220.516ZM222.852 539.154C224.145 539.154 225.188 540.094 225.188 541.434H225.388C225.388 539.974 224.246 538.954 222.852 538.954V539.154ZM225.188 541.434V544.626H225.388V541.434H225.188ZM225.188 544.626C225.188 545.966 224.145 546.906 222.852 546.906V547.106C224.246 547.106 225.388 546.086 225.388 544.626H225.188ZM239.681 538.06V537.96H239.581V538.06H239.681ZM239.681 545.97L239.599 546.028L239.781 546.283V545.97H239.681ZM234.053 538.06L234.134 538.002L234.104 537.96H234.053V538.06ZM232.849 538.06V537.96H232.749V538.06H232.849ZM232.849 548H232.749V548.1H232.849V548ZM234.053 548V548.1H234.153V548H234.053ZM234.053 540.09L234.134 540.032L233.953 539.777V540.09H234.053ZM239.681 548L239.599 548.058L239.629 548.1H239.681V548ZM240.885 548V548.1H240.985V548H240.885ZM240.885 538.06H240.985V537.96H240.885V538.06ZM239.581 538.06V545.97H239.781V538.06H239.581ZM239.762 545.912L234.134 538.002L233.971 538.118L239.599 546.028L239.762 545.912ZM234.053 537.96H232.849V538.16H234.053V537.96ZM232.749 538.06V548H232.949V538.06H232.749ZM232.849 548.1H234.053V547.9H232.849V548.1ZM234.153 548V540.09H233.953V548H234.153ZM233.971 540.148L239.599 548.058L239.762 547.942L234.134 540.032L233.971 540.148ZM239.681 548.1H240.885V547.9H239.681V548.1ZM240.985 548V538.06H240.785V548H240.985ZM240.885 537.96H239.681V538.16H240.885V537.96ZM246.54 548.24C248.751 548.24 250.392 546.543 250.392 544.444H250.192C250.192 546.433 248.641 548.04 246.54 548.04V548.24ZM250.392 544.444C250.392 542.372 248.751 540.676 246.54 540.676V540.876C248.641 540.876 250.192 542.484 250.192 544.444H250.392ZM246.54 540.676C244.344 540.676 242.674 542.372 242.674 544.444H242.874C242.874 542.484 244.452 540.876 246.54 540.876V540.676ZM242.674 544.444C242.674 546.544 244.343 548.24 246.54 548.24V548.04C244.452 548.04 242.874 546.432 242.874 544.444H242.674ZM246.54 546.906C245.154 546.906 244.078 545.79 244.078 544.444H243.878C243.878 545.898 245.042 547.106 246.54 547.106V546.906ZM244.078 544.444C244.078 543.127 245.154 542.01 246.54 542.01V541.81C245.042 541.81 243.878 543.017 243.878 544.444H244.078ZM246.54 542.01C247.939 542.01 248.988 543.126 248.988 544.444H249.188C249.188 543.018 248.053 541.81 246.54 541.81V542.01ZM248.988 544.444C248.988 545.791 247.939 546.906 246.54 546.906V547.106C248.053 547.106 249.188 545.897 249.188 544.444H248.988ZM257.196 540.916V540.816H257.128L257.103 540.879L257.196 540.916ZM254.844 546.754L254.751 546.791L254.844 547.022L254.936 546.791L254.844 546.754ZM252.492 540.916L252.584 540.879L252.559 540.816H252.492V540.916ZM251.148 540.916V540.816H250.997L251.056 540.955L251.148 540.916ZM254.158 548L254.066 548.039L254.092 548.1H254.158V548ZM255.53 548V548.1H255.596L255.622 548.039L255.53 548ZM258.54 540.916L258.632 540.955L258.691 540.816H258.54V540.916ZM257.103 540.879L254.751 546.717L254.936 546.791L257.288 540.953L257.103 540.879ZM254.936 546.717L252.584 540.879L252.399 540.953L254.751 546.791L254.936 546.717ZM252.492 540.816H251.148V541.016H252.492V540.816ZM251.056 540.955L254.066 548.039L254.25 547.961L251.24 540.877L251.056 540.955ZM254.158 548.1H255.53V547.9H254.158V548.1ZM255.622 548.039L258.632 540.955L258.448 540.877L255.438 547.961L255.622 548.039ZM258.54 540.816H257.196V541.016H258.54V540.816Z" fill="#D2D6EF"/>
</g>
<g opacity="0.32" filter="url(#filter9_d_18_2)">
<path d="M360.494 546.866V538.06L357.372 538.816V540.02L359.29 539.544V546.866H356.98V548H362.804V546.866H360.494ZM367.817 541.294C367.019 541.294 366.263 541.504 365.633 541.91L366.053 539.194H370.393V538.06H365.045L364.177 543.73H365.353C365.689 542.764 366.725 542.372 367.565 542.372C368.853 542.372 369.903 543.184 369.903 544.668C369.903 546.012 368.825 546.936 367.565 546.936C366.193 546.936 365.283 546.026 365.269 544.878H364.065C364.065 546.614 365.381 548.14 367.579 548.14C369.623 548.14 371.093 546.586 371.093 544.724C371.093 542.596 369.609 541.294 367.817 541.294ZM384.421 538.06V545.97L378.793 538.06H377.589V548H378.793V540.09L384.421 548H385.625V538.06H384.421ZM391.28 548.14C393.436 548.14 395.032 546.488 395.032 544.444C395.032 542.428 393.436 540.776 391.28 540.776C389.138 540.776 387.514 542.428 387.514 544.444C387.514 546.488 389.138 548.14 391.28 548.14ZM391.28 547.006C389.838 547.006 388.718 545.844 388.718 544.444C388.718 543.072 389.838 541.91 391.28 541.91C392.736 541.91 393.828 543.072 393.828 544.444C393.828 545.844 392.736 547.006 391.28 547.006ZM401.936 540.916L399.584 546.754L397.232 540.916H395.888L398.898 548H400.27L403.28 540.916H401.936Z" fill="#D2D6EF"/>
<path d="M360.494 546.866H360.394V546.966H360.494V546.866ZM360.494 538.06H360.594V537.933L360.47 537.963L360.494 538.06ZM357.372 538.816L357.348 538.719L357.272 538.737V538.816H357.372ZM357.372 540.02H357.272V540.148L357.396 540.117L357.372 540.02ZM359.29 539.544H359.39V539.416L359.266 539.447L359.29 539.544ZM359.29 546.866V546.966H359.39V546.866H359.29ZM356.98 546.866V546.766H356.88V546.866H356.98ZM356.98 548H356.88V548.1H356.98V548ZM362.804 548V548.1H362.904V548H362.804ZM362.804 546.866H362.904V546.766H362.804V546.866ZM360.594 546.866V538.06H360.394V546.866H360.594ZM360.47 537.963L357.348 538.719L357.396 538.913L360.518 538.157L360.47 537.963ZM357.272 538.816V540.02H357.472V538.816H357.272ZM357.396 540.117L359.314 539.641L359.266 539.447L357.348 539.923L357.396 540.117ZM359.19 539.544V546.866H359.39V539.544H359.19ZM359.29 546.766H356.98V546.966H359.29V546.766ZM356.88 546.866V548H357.08V546.866H356.88ZM356.98 548.1H362.804V547.9H356.98V548.1ZM362.904 548V546.866H362.704V548H362.904ZM362.804 546.766H360.494V546.966H362.804V546.766ZM365.633 541.91L365.534 541.895L365.5 542.115L365.687 541.994L365.633 541.91ZM366.053 539.194V539.094H365.967L365.954 539.179L366.053 539.194ZM370.393 539.194V539.294H370.493V539.194H370.393ZM370.393 538.06H370.493V537.96H370.393V538.06ZM365.045 538.06V537.96H364.959L364.946 538.045L365.045 538.06ZM364.177 543.73L364.078 543.715L364.06 543.83H364.177V543.73ZM365.353 543.73V543.83H365.424L365.447 543.763L365.353 543.73ZM365.269 544.878L365.369 544.877L365.368 544.778H365.269V544.878ZM364.065 544.878V544.778H363.965V544.878H364.065ZM367.817 541.194C367.001 541.194 366.226 541.409 365.579 541.826L365.687 541.994C366.299 541.599 367.036 541.394 367.817 541.394V541.194ZM365.732 541.925L366.152 539.209L365.954 539.179L365.534 541.895L365.732 541.925ZM366.053 539.294H370.393V539.094H366.053V539.294ZM370.493 539.194V538.06H370.293V539.194H370.493ZM370.393 537.96H365.045V538.16H370.393V537.96ZM364.946 538.045L364.078 543.715L364.276 543.745L365.144 538.075L364.946 538.045ZM364.177 543.83H365.353V543.63H364.177V543.83ZM365.447 543.763C365.763 542.854 366.745 542.472 367.565 542.472V542.272C366.704 542.272 365.614 542.674 365.258 543.697L365.447 543.763ZM367.565 542.472C368.188 542.472 368.747 542.668 369.149 543.037C369.55 543.405 369.803 543.951 369.803 544.668H370.003C370.003 543.901 369.731 543.299 369.284 542.89C368.839 542.482 368.229 542.272 367.565 542.272V542.472ZM369.803 544.668C369.803 545.95 368.776 546.836 367.565 546.836V547.036C368.873 547.036 370.003 546.074 370.003 544.668H369.803ZM367.565 546.836C366.241 546.836 365.382 545.964 365.369 544.877L365.169 544.879C365.184 546.088 366.144 547.036 367.565 547.036V546.836ZM365.269 544.778H364.065V544.978H365.269V544.778ZM363.965 544.878C363.965 546.67 365.326 548.24 367.579 548.24V548.04C365.435 548.04 364.165 546.558 364.165 544.878H363.965ZM367.579 548.24C369.678 548.24 371.193 546.641 371.193 544.724H370.993C370.993 546.531 369.568 548.04 367.579 548.04V548.24ZM371.193 544.724C371.193 542.54 369.663 541.194 367.817 541.194V541.394C369.554 541.394 370.993 542.652 370.993 544.724H371.193ZM384.421 538.06V537.96H384.321V538.06H384.421ZM384.421 545.97L384.34 546.028L384.521 546.283V545.97H384.421ZM378.793 538.06L378.874 538.002L378.845 537.96H378.793V538.06ZM377.589 538.06V537.96H377.489V538.06H377.589ZM377.589 548H377.489V548.1H377.589V548ZM378.793 548V548.1H378.893V548H378.793ZM378.793 540.09L378.874 540.032L378.693 539.777V540.09H378.793ZM384.421 548L384.34 548.058L384.369 548.1H384.421V548ZM385.625 548V548.1H385.725V548H385.625ZM385.625 538.06H385.725V537.96H385.625V538.06ZM384.321 538.06V545.97H384.521V538.06H384.321ZM384.502 545.912L378.874 538.002L378.712 538.118L384.34 546.028L384.502 545.912ZM378.793 537.96H377.589V538.16H378.793V537.96ZM377.489 538.06V548H377.689V538.06H377.489ZM377.589 548.1H378.793V547.9H377.589V548.1ZM378.893 548V540.09H378.693V548H378.893ZM378.712 540.148L384.34 548.058L384.502 547.942L378.874 540.032L378.712 540.148ZM384.421 548.1H385.625V547.9H384.421V548.1ZM385.725 548V538.06H385.525V548H385.725ZM385.625 537.96H384.421V538.16H385.625V537.96ZM391.28 548.24C393.491 548.24 395.132 546.543 395.132 544.444H394.932C394.932 546.433 393.381 548.04 391.28 548.04V548.24ZM395.132 544.444C395.132 542.372 393.491 540.676 391.28 540.676V540.876C393.381 540.876 394.932 542.484 394.932 544.444H395.132ZM391.28 540.676C389.084 540.676 387.414 542.372 387.414 544.444H387.614C387.614 542.484 389.192 540.876 391.28 540.876V540.676ZM387.414 544.444C387.414 546.544 389.084 548.24 391.28 548.24V548.04C389.193 548.04 387.614 546.432 387.614 544.444H387.414ZM391.28 546.906C389.895 546.906 388.818 545.79 388.818 544.444H388.618C388.618 545.898 389.782 547.106 391.28 547.106V546.906ZM388.818 544.444C388.818 543.127 389.894 542.01 391.28 542.01V541.81C389.783 541.81 388.618 543.017 388.618 544.444H388.818ZM391.28 542.01C392.68 542.01 393.728 543.126 393.728 544.444H393.928C393.928 543.018 392.793 541.81 391.28 541.81V542.01ZM393.728 544.444C393.728 545.791 392.679 546.906 391.28 546.906V547.106C392.794 547.106 393.928 545.897 393.928 544.444H393.728ZM401.936 540.916V540.816H401.868L401.843 540.879L401.936 540.916ZM399.584 546.754L399.491 546.791L399.584 547.022L399.677 546.791L399.584 546.754ZM397.232 540.916L397.325 540.879L397.299 540.816H397.232V540.916ZM395.888 540.916V540.816H395.737L395.796 540.955L395.888 540.916ZM398.898 548L398.806 548.039L398.832 548.1H398.898V548ZM400.27 548V548.1H400.336L400.362 548.039L400.27 548ZM403.28 540.916L403.372 540.955L403.431 540.816H403.28V540.916ZM401.843 540.879L399.491 546.717L399.677 546.791L402.029 540.953L401.843 540.879ZM399.677 546.717L397.325 540.879L397.139 540.953L399.491 546.791L399.677 546.717ZM397.232 540.816H395.888V541.016H397.232V540.816ZM395.796 540.955L398.806 548.039L398.99 547.961L395.98 540.877L395.796 540.955ZM398.898 548.1H400.27V547.9H398.898V548.1ZM400.362 548.039L403.372 540.955L403.188 540.877L400.178 547.961L400.362 548.039ZM403.28 540.816H401.936V541.016H403.28V540.816Z" fill="#D2D6EF"/>
</g>
<g opacity="0.32" filter="url(#filter10_d_18_2)">
<path d="M510.176 541.028C510.176 539.152 508.776 537.92 506.928 537.92C504.772 537.92 503.26 539.348 503.26 541.14H504.464C504.464 539.95 505.444 539.054 506.914 539.054C508.104 539.054 508.972 539.866 508.972 540.986C508.972 543.604 503.26 543.954 503.26 546.866V548H510.176V546.866H504.478C504.478 544.822 510.176 544.458 510.176 541.028ZM515.793 537.92C513.875 537.92 512.153 539.264 512.153 541.434V544.626C512.153 546.796 513.875 548.14 515.793 548.14C517.711 548.14 519.433 546.796 519.433 544.626V541.434C519.433 539.264 517.711 537.92 515.793 537.92ZM515.793 547.006C514.449 547.006 513.357 546.026 513.357 544.626V541.434C513.357 540.034 514.449 539.054 515.793 539.054C517.137 539.054 518.229 540.034 518.229 541.434V544.626C518.229 546.026 517.137 547.006 515.793 547.006ZM532.622 538.06V545.97L526.994 538.06H525.79V548H526.994V540.09L532.622 548H533.826V538.06H532.622ZM539.481 548.14C541.637 548.14 543.233 546.488 543.233 544.444C543.233 542.428 541.637 540.776 539.481 540.776C537.339 540.776 535.715 542.428 535.715 544.444C535.715 546.488 537.339 548.14 539.481 548.14ZM539.481 547.006C538.039 547.006 536.919 545.844 536.919 544.444C536.919 543.072 538.039 541.91 539.481 541.91C540.937 541.91 542.029 543.072 542.029 544.444C542.029 545.844 540.937 547.006 539.481 547.006ZM550.137 540.916L547.785 546.754L545.433 540.916H544.089L547.099 548H548.471L551.481 540.916H550.137Z" fill="#D2D6EF"/>
<path d="M503.26 541.14H503.16V541.24H503.26V541.14ZM504.464 541.14V541.24H504.564V541.14H504.464ZM503.26 548H503.16V548.1H503.26V548ZM510.176 548V548.1H510.276V548H510.176ZM510.176 546.866H510.276V546.766H510.176V546.866ZM504.478 546.866H504.378V546.966H504.478V546.866ZM510.276 541.028C510.276 540.064 509.916 539.26 509.313 538.697C508.712 538.136 507.874 537.82 506.928 537.82V538.02C507.83 538.02 508.616 538.32 509.177 538.844C509.736 539.366 510.076 540.116 510.076 541.028H510.276ZM506.928 537.82C504.727 537.82 503.16 539.283 503.16 541.14H503.36C503.36 539.413 504.817 538.02 506.928 538.02V537.82ZM503.26 541.24H504.464V541.04H503.26V541.24ZM504.564 541.14C504.564 540.018 505.486 539.154 506.914 539.154V538.954C505.402 538.954 504.364 539.882 504.364 541.14H504.564ZM506.914 539.154C508.055 539.154 508.872 539.927 508.872 540.986H509.072C509.072 539.805 508.153 538.954 506.914 538.954V539.154ZM508.872 540.986C508.872 541.598 508.54 542.086 508.015 542.523C507.489 542.962 506.786 543.337 506.068 543.728C505.356 544.116 504.631 544.52 504.086 545.013C503.537 545.507 503.16 546.1 503.16 546.866H503.36C503.36 546.176 503.697 545.633 504.219 545.161C504.745 544.687 505.448 544.294 506.164 543.904C506.874 543.516 507.599 543.131 508.144 542.677C508.69 542.221 509.072 541.683 509.072 540.986H508.872ZM503.16 546.866V548H503.36V546.866H503.16ZM503.26 548.1H510.176V547.9H503.26V548.1ZM510.276 548V546.866H510.076V548H510.276ZM510.176 546.766H504.478V546.966H510.176V546.766ZM504.578 546.866C504.578 546.407 504.897 546.027 505.426 545.656C505.954 545.285 506.656 544.946 507.375 544.555C508.793 543.783 510.276 542.809 510.276 541.028H510.076C510.076 542.677 508.71 543.6 507.279 544.379C506.574 544.763 505.851 545.112 505.311 545.492C504.772 545.871 504.378 546.303 504.378 546.866H504.578ZM515.793 537.82C513.83 537.82 512.053 539.2 512.053 541.434H512.253C512.253 539.328 513.921 538.02 515.793 538.02V537.82ZM512.053 541.434V544.626H512.253V541.434H512.053ZM512.053 544.626C512.053 546.86 513.83 548.24 515.793 548.24V548.04C513.921 548.04 512.253 546.732 512.253 544.626H512.053ZM515.793 548.24C517.757 548.24 519.533 546.86 519.533 544.626H519.333C519.333 546.732 517.666 548.04 515.793 548.04V548.24ZM519.533 544.626V541.434H519.333V544.626H519.533ZM519.533 541.434C519.533 539.2 517.757 537.82 515.793 537.82V538.02C517.666 538.02 519.333 539.328 519.333 541.434H519.533ZM515.793 546.906C514.5 546.906 513.457 545.966 513.457 544.626H513.257C513.257 546.086 514.399 547.106 515.793 547.106V546.906ZM513.457 544.626V541.434H513.257V544.626H513.457ZM513.457 541.434C513.457 540.094 514.5 539.154 515.793 539.154V538.954C514.399 538.954 513.257 539.974 513.257 541.434H513.457ZM515.793 539.154C517.087 539.154 518.129 540.094 518.129 541.434H518.329C518.329 539.974 517.188 538.954 515.793 538.954V539.154ZM518.129 541.434V544.626H518.329V541.434H518.129ZM518.129 544.626C518.129 545.966 517.087 546.906 515.793 546.906V547.106C517.188 547.106 518.329 546.086 518.329 544.626H518.129ZM532.622 538.06V537.96H532.522V538.06H532.622ZM532.622 545.97L532.541 546.028L532.722 546.283V545.97H532.622ZM526.994 538.06L527.076 538.002L527.046 537.96H526.994V538.06ZM525.79 538.06V537.96H525.69V538.06H525.79ZM525.79 548H525.69V548.1H525.79V548ZM526.994 548V548.1H527.094V548H526.994ZM526.994 540.09L527.076 540.032L526.894 539.777V540.09H526.994ZM532.622 548L532.541 548.058L532.571 548.1H532.622V548ZM533.826 548V548.1H533.926V548H533.826ZM533.826 538.06H533.926V537.96H533.826V538.06ZM532.522 538.06V545.97H532.722V538.06H532.522ZM532.704 545.912L527.076 538.002L526.913 538.118L532.541 546.028L532.704 545.912ZM526.994 537.96H525.79V538.16H526.994V537.96ZM525.69 538.06V548H525.89V538.06H525.69ZM525.79 548.1H526.994V547.9H525.79V548.1ZM527.094 548V540.09H526.894V548H527.094ZM526.913 540.148L532.541 548.058L532.704 547.942L527.076 540.032L526.913 540.148ZM532.622 548.1H533.826V547.9H532.622V548.1ZM533.926 548V538.06H533.726V548H533.926ZM533.826 537.96H532.622V538.16H533.826V537.96ZM539.481 548.24C541.693 548.24 543.333 546.543 543.333 544.444H543.133C543.133 546.433 541.582 548.04 539.481 548.04V548.24ZM543.333 544.444C543.333 542.372 541.692 540.676 539.481 540.676V540.876C541.583 540.876 543.133 542.484 543.133 544.444H543.333ZM539.481 540.676C537.285 540.676 535.615 542.372 535.615 544.444H535.815C535.815 542.484 537.393 540.876 539.481 540.876V540.676ZM535.615 544.444C535.615 546.544 537.285 548.24 539.481 548.24V548.04C537.394 548.04 535.815 546.432 535.815 544.444H535.615ZM539.481 546.906C538.096 546.906 537.019 545.79 537.019 544.444H536.819C536.819 545.898 537.983 547.106 539.481 547.106V546.906ZM537.019 544.444C537.019 543.127 538.095 542.01 539.481 542.01V541.81C537.984 541.81 536.819 543.017 536.819 544.444H537.019ZM539.481 542.01C540.881 542.01 541.929 543.126 541.929 544.444H542.129C542.129 543.018 540.994 541.81 539.481 541.81V542.01ZM541.929 544.444C541.929 545.791 540.88 546.906 539.481 546.906V547.106C540.995 547.106 542.129 545.897 542.129 544.444H541.929ZM550.137 540.916V540.816H550.07L550.044 540.879L550.137 540.916ZM547.785 546.754L547.692 546.791L547.785 547.022L547.878 546.791L547.785 546.754ZM545.433 540.916L545.526 540.879L545.501 540.816H545.433V540.916ZM544.089 540.916V540.816H543.938L543.997 540.955L544.089 540.916ZM547.099 548L547.007 548.039L547.033 548.1H547.099V548ZM548.471 548V548.1H548.537L548.563 548.039L548.471 548ZM551.481 540.916L551.573 540.955L551.632 540.816H551.481V540.916ZM550.044 540.879L547.692 546.717L547.878 546.791L550.23 540.953L550.044 540.879ZM547.878 546.717L545.526 540.879L545.34 540.953L547.692 546.791L547.878 546.717ZM545.433 540.816H544.089V541.016H545.433V540.816ZM543.997 540.955L547.007 548.039L547.191 547.961L544.181 540.877L543.997 540.955ZM547.099 548.1H548.471V547.9H547.099V548.1ZM548.563 548.039L551.573 540.955L551.389 540.877L548.379 547.961L548.563 548.039ZM551.481 540.816H550.137V541.016H551.481V540.816Z" fill="#D2D6EF"/>
</g>
<g opacity="0.32" filter="url(#filter11_d_18_2)">
<path d="M658.176 541.028C658.176 539.152 656.776 537.92 654.928 537.92C652.772 537.92 651.26 539.348 651.26 541.14H652.464C652.464 539.95 653.444 539.054 654.914 539.054C656.104 539.054 656.972 539.866 656.972 540.986C656.972 543.604 651.26 543.954 651.26 546.866V548H658.176V546.866H652.478C652.478 544.822 658.176 544.458 658.176 541.028ZM663.84 541.294C663.042 541.294 662.286 541.504 661.656 541.91L662.076 539.194H666.416V538.06H661.068L660.2 543.73H661.376C661.712 542.764 662.748 542.372 663.588 542.372C664.876 542.372 665.926 543.184 665.926 544.668C665.926 546.012 664.848 546.936 663.588 546.936C662.216 546.936 661.306 546.026 661.292 544.878H660.088C660.088 546.614 661.404 548.14 663.602 548.14C665.646 548.14 667.116 546.586 667.116 544.724C667.116 542.596 665.632 541.294 663.84 541.294ZM680.444 538.06V545.97L674.816 538.06H673.612V548H674.816V540.09L680.444 548H681.648V538.06H680.444ZM687.304 548.14C689.46 548.14 691.056 546.488 691.056 544.444C691.056 542.428 689.46 540.776 687.304 540.776C685.162 540.776 683.538 542.428 683.538 544.444C683.538 546.488 685.162 548.14 687.304 548.14ZM687.304 547.006C685.862 547.006 684.742 545.844 684.742 544.444C684.742 543.072 685.862 541.91 687.304 541.91C688.76 541.91 689.852 543.072 689.852 544.444C689.852 545.844 688.76 547.006 687.304 547.006ZM697.959 540.916L695.607 546.754L693.255 540.916H691.911L694.921 548H696.293L699.303 540.916H697.959Z" fill="#D2D6EF"/>
<path d="M651.26 541.14H651.16V541.24H651.26V541.14ZM652.464 541.14V541.24H652.564V541.14H652.464ZM651.26 548H651.16V548.1H651.26V548ZM658.176 548V548.1H658.276V548H658.176ZM658.176 546.866H658.276V546.766H658.176V546.866ZM652.478 546.866H652.378V546.966H652.478V546.866ZM658.276 541.028C658.276 540.064 657.916 539.26 657.313 538.697C656.712 538.136 655.874 537.82 654.928 537.82V538.02C655.83 538.02 656.616 538.32 657.177 538.844C657.736 539.366 658.076 540.116 658.076 541.028H658.276ZM654.928 537.82C652.727 537.82 651.16 539.283 651.16 541.14H651.36C651.36 539.413 652.817 538.02 654.928 538.02V537.82ZM651.26 541.24H652.464V541.04H651.26V541.24ZM652.564 541.14C652.564 540.018 653.486 539.154 654.914 539.154V538.954C653.402 538.954 652.364 539.882 652.364 541.14H652.564ZM654.914 539.154C656.055 539.154 656.872 539.927 656.872 540.986H657.072C657.072 539.805 656.153 538.954 654.914 538.954V539.154ZM656.872 540.986C656.872 541.598 656.54 542.086 656.015 542.523C655.489 542.962 654.786 543.337 654.068 543.728C653.356 544.116 652.631 544.52 652.086 545.013C651.537 545.507 651.16 546.1 651.16 546.866H651.36C651.36 546.176 651.697 545.633 652.219 545.161C652.745 544.687 653.448 544.294 654.164 543.904C654.874 543.516 655.599 543.131 656.144 542.677C656.69 542.221 657.072 541.683 657.072 540.986H656.872ZM651.16 546.866V548H651.36V546.866H651.16ZM651.26 548.1H658.176V547.9H651.26V548.1ZM658.276 548V546.866H658.076V548H658.276ZM658.176 546.766H652.478V546.966H658.176V546.766ZM652.578 546.866C652.578 546.407 652.897 546.027 653.426 545.656C653.954 545.285 654.656 544.946 655.375 544.555C656.793 543.783 658.276 542.809 658.276 541.028H658.076C658.076 542.677 656.71 543.6 655.279 544.379C654.574 544.763 653.851 545.112 653.311 545.492C652.772 545.871 652.378 546.303 652.378 546.866H652.578ZM661.656 541.91L661.557 541.895L661.523 542.115L661.71 541.994L661.656 541.91ZM662.076 539.194V539.094H661.99L661.977 539.179L662.076 539.194ZM666.416 539.194V539.294H666.516V539.194H666.416ZM666.416 538.06H666.516V537.96H666.416V538.06ZM661.068 538.06V537.96H660.982L660.969 538.045L661.068 538.06ZM660.2 543.73L660.101 543.715L660.084 543.83H660.2V543.73ZM661.376 543.73V543.83H661.447L661.471 543.763L661.376 543.73ZM661.292 544.878L661.392 544.877L661.391 544.778H661.292V544.878ZM660.088 544.878V544.778H659.988V544.878H660.088ZM663.84 541.194C663.025 541.194 662.25 541.409 661.602 541.826L661.71 541.994C662.323 541.599 663.06 541.394 663.84 541.394V541.194ZM661.755 541.925L662.175 539.209L661.977 539.179L661.557 541.895L661.755 541.925ZM662.076 539.294H666.416V539.094H662.076V539.294ZM666.516 539.194V538.06H666.316V539.194H666.516ZM666.416 537.96H661.068V538.16H666.416V537.96ZM660.969 538.045L660.101 543.715L660.299 543.745L661.167 538.075L660.969 538.045ZM660.2 543.83H661.376V543.63H660.2V543.83ZM661.471 543.763C661.787 542.854 662.769 542.472 663.588 542.472V542.272C662.728 542.272 661.638 542.674 661.282 543.697L661.471 543.763ZM663.588 542.472C664.212 542.472 664.771 542.668 665.173 543.037C665.573 543.405 665.826 543.951 665.826 544.668H666.026C666.026 543.901 665.754 543.299 665.308 542.89C664.863 542.482 664.253 542.272 663.588 542.272V542.472ZM665.826 544.668C665.826 545.95 664.799 546.836 663.588 546.836V547.036C664.897 547.036 666.026 546.074 666.026 544.668H665.826ZM663.588 546.836C662.265 546.836 661.405 545.964 661.392 544.877L661.192 544.879C661.207 546.088 662.168 547.036 663.588 547.036V546.836ZM661.292 544.778H660.088V544.978H661.292V544.778ZM659.988 544.878C659.988 546.67 661.35 548.24 663.602 548.24V548.04C661.459 548.04 660.188 546.558 660.188 544.878H659.988ZM663.602 548.24C665.701 548.24 667.216 546.641 667.216 544.724H667.016C667.016 546.531 665.591 548.04 663.602 548.04V548.24ZM667.216 544.724C667.216 542.54 665.687 541.194 663.84 541.194V541.394C665.578 541.394 667.016 542.652 667.016 544.724H667.216ZM680.444 538.06V537.96H680.344V538.06H680.444ZM680.444 545.97L680.363 546.028L680.544 546.283V545.97H680.444ZM674.816 538.06L674.898 538.002L674.868 537.96H674.816V538.06ZM673.612 538.06V537.96H673.512V538.06H673.612ZM673.612 548H673.512V548.1H673.612V548ZM674.816 548V548.1H674.916V548H674.816ZM674.816 540.09L674.898 540.032L674.716 539.777V540.09H674.816ZM680.444 548L680.363 548.058L680.393 548.1H680.444V548ZM681.648 548V548.1H681.748V548H681.648ZM681.648 538.06H681.748V537.96H681.648V538.06ZM680.344 538.06V545.97H680.544V538.06H680.344ZM680.526 545.912L674.898 538.002L674.735 538.118L680.363 546.028L680.526 545.912ZM674.816 537.96H673.612V538.16H674.816V537.96ZM673.512 538.06V548H673.712V538.06H673.512ZM673.612 548.1H674.816V547.9H673.612V548.1ZM674.916 548V540.09H674.716V548H674.916ZM674.735 540.148L680.363 548.058L680.526 547.942L674.898 540.032L674.735 540.148ZM680.444 548.1H681.648V547.9H680.444V548.1ZM681.748 548V538.06H681.548V548H681.748ZM681.648 537.96H680.444V538.16H681.648V537.96ZM687.304 548.24C689.515 548.24 691.156 546.543 691.156 544.444H690.956C690.956 546.433 689.404 548.04 687.304 548.04V548.24ZM691.156 544.444C691.156 542.372 689.514 540.676 687.304 540.676V540.876C689.405 540.876 690.956 542.484 690.956 544.444H691.156ZM687.304 540.676C685.108 540.676 683.438 542.372 683.438 544.444H683.638C683.638 542.484 685.216 540.876 687.304 540.876V540.676ZM683.438 544.444C683.438 546.544 685.107 548.24 687.304 548.24V548.04C685.216 548.04 683.638 546.432 683.638 544.444H683.438ZM687.304 546.906C685.918 546.906 684.842 545.79 684.842 544.444H684.642C684.642 545.898 685.805 547.106 687.304 547.106V546.906ZM684.842 544.444C684.842 543.127 685.917 542.01 687.304 542.01V541.81C685.806 541.81 684.642 543.017 684.642 544.444H684.842ZM687.304 542.01C688.703 542.01 689.752 543.126 689.752 544.444H689.952C689.952 543.018 688.816 541.81 687.304 541.81V542.01ZM689.752 544.444C689.752 545.791 688.702 546.906 687.304 546.906V547.106C688.817 547.106 689.952 545.897 689.952 544.444H689.752ZM697.959 540.916V540.816H697.892L697.867 540.879L697.959 540.916ZM695.607 546.754L695.515 546.791L695.607 547.022L695.7 546.791L695.607 546.754ZM693.255 540.916L693.348 540.879L693.323 540.816H693.255V540.916ZM691.911 540.916V540.816H691.76L691.819 540.955L691.911 540.916ZM694.921 548L694.829 548.039L694.855 548.1H694.921V548ZM696.293 548V548.1H696.36L696.385 548.039L696.293 548ZM699.303 540.916L699.395 540.955L699.455 540.816H699.303V540.916ZM697.867 540.879L695.515 546.717L695.7 546.791L698.052 540.953L697.867 540.879ZM695.7 546.717L693.348 540.879L693.163 540.953L695.515 546.791L695.7 546.717ZM693.255 540.816H691.911V541.016H693.255V540.816ZM691.819 540.955L694.829 548.039L695.013 547.961L692.003 540.877L691.819 540.955ZM694.921 548.1H696.293V547.9H694.921V548.1ZM696.385 548.039L699.395 540.955L699.211 540.877L696.201 547.961L696.385 548.039ZM699.303 540.816H697.959V541.016H699.303V540.816Z" fill="#D2D6EF"/>
</g>
<g opacity="0.32" filter="url(#filter12_d_18_2)">
<path d="M780.664 542.82C781.378 542.386 781.868 541.672 781.868 540.692C781.868 539.194 780.636 537.92 778.774 537.92C776.576 537.92 775.26 539.39 775.26 541.182H776.464C776.464 539.936 777.402 539.054 778.718 539.054C779.922 539.054 780.678 539.768 780.678 540.748C780.678 541.686 779.978 542.288 778.732 542.288H777.962V543.436H778.732C779.964 543.436 781.098 543.87 781.098 545.13C781.098 546.18 780.272 547.006 778.858 547.006C777.542 547.006 776.464 546.194 776.464 544.878H775.26C775.26 546.67 776.716 548.14 778.914 548.14C781.056 548.14 782.288 546.768 782.288 545.2C782.288 544.01 781.574 543.24 780.664 542.82ZM787.356 537.92C785.438 537.92 783.716 539.264 783.716 541.434V544.626C783.716 546.796 785.438 548.14 787.356 548.14C789.274 548.14 790.996 546.796 790.996 544.626V541.434C790.996 539.264 789.274 537.92 787.356 537.92ZM787.356 547.006C786.012 547.006 784.92 546.026 784.92 544.626V541.434C784.92 540.034 786.012 539.054 787.356 539.054C788.7 539.054 789.792 540.034 789.792 541.434V544.626C789.792 546.026 788.7 547.006 787.356 547.006ZM804.185 538.06V545.97L798.557 538.06H797.353V548H798.557V540.09L804.185 548H805.389V538.06H804.185ZM811.044 548.14C813.2 548.14 814.796 546.488 814.796 544.444C814.796 542.428 813.2 540.776 811.044 540.776C808.902 540.776 807.278 542.428 807.278 544.444C807.278 546.488 808.902 548.14 811.044 548.14ZM811.044 547.006C809.602 547.006 808.482 545.844 808.482 544.444C808.482 543.072 809.602 541.91 811.044 541.91C812.5 541.91 813.592 543.072 813.592 544.444C813.592 545.844 812.5 547.006 811.044 547.006ZM821.7 540.916L819.348 546.754L816.996 540.916H815.652L818.662 548H820.034L823.044 540.916H821.7Z" fill="#D2D6EF"/>
<path d="M780.664 542.82L780.612 542.735L780.452 542.832L780.622 542.911L780.664 542.82ZM775.26 541.182H775.16V541.282H775.26V541.182ZM776.464 541.182V541.282H776.564V541.182H776.464ZM777.962 542.288V542.188H777.862V542.288H777.962ZM777.962 543.436H777.862V543.536H777.962V543.436ZM776.464 544.878H776.564V544.778H776.464V544.878ZM775.26 544.878V544.778H775.16V544.878H775.26ZM780.716 542.905C781.456 542.455 781.968 541.711 781.968 540.692H781.768C781.768 541.633 781.3 542.317 780.612 542.735L780.716 542.905ZM781.968 540.692C781.968 539.133 780.685 537.82 778.774 537.82V538.02C780.587 538.02 781.768 539.255 781.768 540.692H781.968ZM778.774 537.82C777.652 537.82 776.747 538.196 776.123 538.808C775.498 539.419 775.16 540.261 775.16 541.182H775.36C775.36 540.311 775.68 539.522 776.263 538.95C776.846 538.379 777.698 538.02 778.774 538.02V537.82ZM775.26 541.282H776.464V541.082H775.26V541.282ZM776.564 541.182C776.564 539.997 777.452 539.154 778.718 539.154V538.954C777.352 538.954 776.364 539.875 776.364 541.182H776.564ZM778.718 539.154C779.3 539.154 779.765 539.327 780.083 539.608C780.4 539.889 780.578 540.285 780.578 540.748H780.778C780.778 540.231 780.578 539.78 780.216 539.459C779.855 539.138 779.34 538.954 778.718 538.954V539.154ZM780.578 540.748C780.578 541.19 780.414 541.545 780.109 541.792C779.802 542.041 779.34 542.188 778.732 542.188V542.388C779.37 542.388 779.881 542.234 780.235 541.947C780.592 541.659 780.778 541.244 780.778 540.748H780.578ZM778.732 542.188H777.962V542.388H778.732V542.188ZM777.862 542.288V543.436H778.062V542.288H777.862ZM777.962 543.536H778.732V543.336H777.962V543.536ZM778.732 543.536C779.339 543.536 779.91 543.643 780.325 543.896C780.734 544.145 780.998 544.537 780.998 545.13H781.198C781.198 544.463 780.895 544.008 780.429 543.725C779.969 543.446 779.357 543.336 778.732 543.336V543.536ZM780.998 545.13C780.998 545.627 780.803 546.069 780.442 546.387C780.081 546.705 779.546 546.906 778.858 546.906V547.106C779.584 547.106 780.169 546.894 780.574 546.537C780.98 546.179 781.198 545.683 781.198 545.13H780.998ZM778.858 546.906C778.22 546.906 777.645 546.709 777.232 546.359C776.82 546.011 776.564 545.506 776.564 544.878H776.364C776.364 545.566 776.647 546.125 777.103 546.512C777.558 546.897 778.18 547.106 778.858 547.106V546.906ZM776.464 544.778H775.26V544.978H776.464V544.778ZM775.16 544.878C775.16 546.732 776.668 548.24 778.914 548.24V548.04C776.764 548.04 775.36 546.608 775.36 544.878H775.16ZM778.914 548.24C781.105 548.24 782.388 546.829 782.388 545.2H782.188C782.188 546.707 781.007 548.04 778.914 548.04V548.24ZM782.388 545.2C782.388 543.961 781.641 543.161 780.706 542.729L780.622 542.911C781.507 543.319 782.188 544.059 782.188 545.2H782.388ZM787.356 537.82C785.392 537.82 783.616 539.2 783.616 541.434H783.816C783.816 539.328 785.483 538.02 787.356 538.02V537.82ZM783.616 541.434V544.626H783.816V541.434H783.616ZM783.616 544.626C783.616 546.86 785.392 548.24 787.356 548.24V548.04C785.483 548.04 783.816 546.732 783.816 544.626H783.616ZM787.356 548.24C789.319 548.24 791.096 546.86 791.096 544.626H790.896C790.896 546.732 789.228 548.04 787.356 548.04V548.24ZM791.096 544.626V541.434H790.896V544.626H791.096ZM791.096 541.434C791.096 539.2 789.319 537.82 787.356 537.82V538.02C789.228 538.02 790.896 539.328 790.896 541.434H791.096ZM787.356 546.906C786.062 546.906 785.02 545.966 785.02 544.626H784.82C784.82 546.086 785.961 547.106 787.356 547.106V546.906ZM785.02 544.626V541.434H784.82V544.626H785.02ZM785.02 541.434C785.02 540.094 786.062 539.154 787.356 539.154V538.954C785.961 538.954 784.82 539.974 784.82 541.434H785.02ZM787.356 539.154C788.649 539.154 789.692 540.094 789.692 541.434H789.892C789.892 539.974 788.75 538.954 787.356 538.954V539.154ZM789.692 541.434V544.626H789.892V541.434H789.692ZM789.692 544.626C789.692 545.966 788.649 546.906 787.356 546.906V547.106C788.75 547.106 789.892 546.086 789.892 544.626H789.692ZM804.185 538.06V537.96H804.085V538.06H804.185ZM804.185 545.97L804.103 546.028L804.285 546.283V545.97H804.185ZM798.557 538.06L798.638 538.002L798.608 537.96H798.557V538.06ZM797.353 538.06V537.96H797.253V538.06H797.353ZM797.353 548H797.253V548.1H797.353V548ZM798.557 548V548.1H798.657V548H798.557ZM798.557 540.09L798.638 540.032L798.457 539.777V540.09H798.557ZM804.185 548L804.103 548.058L804.133 548.1H804.185V548ZM805.389 548V548.1H805.489V548H805.389ZM805.389 538.06H805.489V537.96H805.389V538.06ZM804.085 538.06V545.97H804.285V538.06H804.085ZM804.266 545.912L798.638 538.002L798.475 538.118L804.103 546.028L804.266 545.912ZM798.557 537.96H797.353V538.16H798.557V537.96ZM797.253 538.06V548H797.453V538.06H797.253ZM797.353 548.1H798.557V547.9H797.353V548.1ZM798.657 548V540.09H798.457V548H798.657ZM798.475 540.148L804.103 548.058L804.266 547.942L798.638 540.032L798.475 540.148ZM804.185 548.1H805.389V547.9H804.185V548.1ZM805.489 548V538.06H805.289V548H805.489ZM805.389 537.96H804.185V538.16H805.389V537.96ZM811.044 548.24C813.255 548.24 814.896 546.543 814.896 544.444H814.696C814.696 546.433 813.145 548.04 811.044 548.04V548.24ZM814.896 544.444C814.896 542.372 813.255 540.676 811.044 540.676V540.876C813.145 540.876 814.696 542.484 814.696 544.444H814.896ZM811.044 540.676C808.848 540.676 807.178 542.372 807.178 544.444H807.378C807.378 542.484 808.956 540.876 811.044 540.876V540.676ZM807.178 544.444C807.178 546.544 808.847 548.24 811.044 548.24V548.04C808.956 548.04 807.378 546.432 807.378 544.444H807.178ZM811.044 546.906C809.658 546.906 808.582 545.79 808.582 544.444H808.382C808.382 545.898 809.546 547.106 811.044 547.106V546.906ZM808.582 544.444C808.582 543.127 809.657 542.01 811.044 542.01V541.81C809.546 541.81 808.382 543.017 808.382 544.444H808.582ZM811.044 542.01C812.443 542.01 813.492 543.126 813.492 544.444H813.692C813.692 543.018 812.557 541.81 811.044 541.81V542.01ZM813.492 544.444C813.492 545.791 812.443 546.906 811.044 546.906V547.106C812.557 547.106 813.692 545.897 813.692 544.444H813.492ZM821.7 540.916V540.816H821.632L821.607 540.879L821.7 540.916ZM819.348 546.754L819.255 546.791L819.348 547.022L819.44 546.791L819.348 546.754ZM816.996 540.916L817.088 540.879L817.063 540.816H816.996V540.916ZM815.652 540.916V540.816H815.5L815.56 540.955L815.652 540.916ZM818.662 548L818.57 548.039L818.595 548.1H818.662V548ZM820.034 548V548.1H820.1L820.126 548.039L820.034 548ZM823.044 540.916L823.136 540.955L823.195 540.816H823.044V540.916ZM821.607 540.879L819.255 546.717L819.44 546.791L821.792 540.953L821.607 540.879ZM819.44 546.717L817.088 540.879L816.903 540.953L819.255 546.791L819.44 546.717ZM816.996 540.816H815.652V541.016H816.996V540.816ZM815.56 540.955L818.57 548.039L818.754 547.961L815.744 540.877L815.56 540.955ZM818.662 548.1H820.034V547.9H818.662V548.1ZM820.126 548.039L823.136 540.955L822.952 540.877L819.942 547.961L820.126 548.039ZM823.044 540.816H821.7V541.016H823.044V540.816Z" fill="#D2D6EF"/>
</g>
<defs>
<filter id="filter0_i_18_2" x="-14" y="201.51" width="1318" height="421.49" filterUnits="userSpaceOnUse" color-interpolation-filters="sRGB">
<feFlood flood-opacity="0" result="BackgroundImageFix"/>
<feBlend mode="normal" in="SourceGraphic" in2="BackgroundImageFix" result="shape"/>
<feColorMatrix in="SourceAlpha" type="matrix" values="0 0 0 0 0 0 0 0 0 0 0 0 0 0 0 0 0 0 127 0" result="hardAlpha"/>
<feOffset dx="-24" dy="32"/>
<feGaussianBlur stdDeviation="20"/>
<feComposite in2="hardAlpha" operator="arithmetic" k2="-1" k3="1"/>
<feColorMatrix type="matrix" values="0 0 0 0 0.114167 0 0 0 0 0.124071 0 0 0 0 0.2 0 0 0 0.64 0"/>
<feBlend mode="normal" in2="shape" result="effect1_innerShadow_18_2"/>
</filter>
<filter id="filter1_f_18_2" x="7.78369" y="198.51" width="1298.63" height="175.54" filterUnits="userSpaceOnUse" color-interpolation-filters="sRGB">
<feFlood flood-opacity="0" result="BackgroundImageFix"/>
<feBlend mode="normal" in="SourceGraphic" in2="BackgroundImageFix" result="shape"/>
<feGaussianBlur stdDeviation="1" result="effect1_foregroundBlur_18_2"/>
</filter>
<filter id="filter2_f_18_2" x="8.89185" y="199.298" width="1296.31" height="172.552" filterUnits="userSpaceOnUse" color-interpolation-filters="sRGB">
<feFlood flood-opacity="0" result="BackgroundImageFix"/>
<feBlend mode="normal" in="SourceGraphic" in2="BackgroundImageFix" result="shape"/>
<feGaussianBlur stdDeviation="0.5" result="effect1_foregroundBlur_18_2"/>
</filter>
<filter id="filter3_f_18_2" x="-0.000427246" y="202.096" width="759.558" height="177.554" filterUnits="userSpaceOnUse" color-interpolation-filters="sRGB">
<feFlood flood-opacity="0" result="BackgroundImageFix"/>
<feBlend mode="normal" in="SourceGraphic" in2="BackgroundImageFix" result="shape"/>
<feGaussianBlur stdDeviation="4" result="effect1_foregroundBlur_18_2"/>
</filter>
<filter id="filter4_i_18_2" x="5.99957" y="210.096" width="745.558" height="162.554" filterUnits="userSpaceOnUse" color-interpolation-filters="sRGB">
<feFlood flood-opacity="0" result="BackgroundImageFix"/>
<feBlend mode="normal" in="SourceGraphic" in2="BackgroundImageFix" result="shape"/>
<feColorMatrix in="SourceAlpha" type="matrix" values="0 0 0 0 0 0 0 0 0 0 0 0 0 0 0 0 0 0 127 0" result="hardAlpha"/>
<feOffset dx="-2" dy="1"/>
<feGaussianBlur stdDeviation="1"/>
<feComposite in2="hardAlpha" operator="arithmetic" k2="-1" k3="1"/>
<feColorMatrix type="matrix" values="0 0 0 0 0.548568 0 0 0 0 0.575519 0 0 0 0 1 0 0 0 1 0"/>
<feBlend mode="normal" in2="shape" result="effect1_innerShadow_18_2"/>
</filter>
<filter id="filter5_bdi_18_2" x="570" y="235" width="179" height="112" filterUnits="userSpaceOnUse" color-interpolation-filters="sRGB">
<feFlood flood-opacity="0" result="BackgroundImageFix"/>
<feGaussianBlur in="BackgroundImageFix" stdDeviation="8"/>
<feComposite in2="SourceAlpha" operator="in" result="effect1_backgroundBlur_18_2"/>
<feColorMatrix in="SourceAlpha" type="matrix" values="0 0 0 0 0 0 0 0 0 0 0 0 0 0 0 0 0 0 127 0" result="hardAlpha"/>
<feOffset dx="4" dy="6"/>
<feGaussianBlur stdDeviation="10"/>
<feColorMatrix type="matrix" values="0 0 0 0 0.129412 0 0 0 0 0.141176 0 0 0 0 0.235294 0 0 0 0.16 0"/>
<feBlend mode="normal" in2="effect1_backgroundBlur_18_2" result="effect2_dropShadow_18_2"/>
<feBlend mode="normal" in="SourceGraphic" in2="effect2_dropShadow_18_2" result="shape"/>
<feColorMatrix in="SourceAlpha" type="matrix" values="0 0 0 0 0 0 0 0 0 0 0 0 0 0 0 0 0 0 127 0" result="hardAlpha"/>
<feOffset dx="2" dy="2"/>
<feGaussianBlur stdDeviation="1.5"/>
<feComposite in2="hardAlpha" operator="arithmetic" k2="-1" k3="1"/>
<feColorMatrix type="matrix" values="0 0 0 0 0.523219 0 0 0 0 0.566641 0 0 0 0 0.775065 0 0 0 0.08 0"/>
<feBlend mode="screen" in2="shape" result="effect3_innerShadow_18_2"/>
</filter>
<filter id="filter6_d_18_2" x="619.62" y="278.78" width="73.253" height="17.66" filterUnits="userSpaceOnUse" color-interpolation-filters="sRGB">
<feFlood flood-opacity="0" result="BackgroundImageFix"/>
<feColorMatrix in="SourceAlpha" type="matrix" values="0 0 0 0 0 0 0 0 0 0 0 0 0 0 0 0 0 0 127 0" result="hardAlpha"/>
<feOffset dx="1" dy="1"/>
<feGaussianBlur stdDeviation="0.5"/>
<feColorMatrix type="matrix" values="0 0 0 0 0.147813 0 0 0 0 0.169527 0 0 0 0 0.275 0 0 0 0.32 0"/>
<feBlend mode="normal" in2="BackgroundImageFix" result="effect1_dropShadow_18_2"/>
<feBlend mode="normal" in="SourceGraphic" in2="effect1_dropShadow_18_2" result="shape"/>
</filter>
<filter id="filter7_d_18_2" x="90.26" y="538.06" width="41.2152" height="12.08" filterUnits="userSpaceOnUse" color-interpolation-filters="sRGB">
<feFlood flood-opacity="0" result="BackgroundImageFix"/>
<feColorMatrix in="SourceAlpha" type="matrix" values="0 0 0 0 0 0 0 0 0 0 0 0 0 0 0 0 0 0 127 0" result="hardAlpha"/>
<feOffset dx="1" dy="1"/>
<feGaussianBlur stdDeviation="0.5"/>
<feColorMatrix type="matrix" values="0 0 0 0 0.147813 0 0 0 0 0.169527 0 0 0 0 0.275 0 0 0 0.32 0"/>
<feBlend mode="normal" in2="BackgroundImageFix" result="effect1_dropShadow_18_2"/>
<feBlend mode="normal" in="SourceGraphic" in2="effect1_dropShadow_18_2" result="shape"/>
</filter>
<filter id="filter8_d_18_2" x="211.98" y="537.92" width="48.5597" height="12.22" filterUnits="userSpaceOnUse" color-interpolation-filters="sRGB">
<feFlood flood-opacity="0" result="BackgroundImageFix"/>
<feColorMatrix in="SourceAlpha" type="matrix" values="0 0 0 0 0 0 0 0 0 0 0 0 0 0 0 0 0 0 127 0" result="hardAlpha"/>
<feOffset dx="1" dy="1"/>
<feGaussianBlur stdDeviation="0.5"/>
<feColorMatrix type="matrix" values="0 0 0 0 0.147813 0 0 0 0 0.169527 0 0 0 0 0.275 0 0 0 0.32 0"/>
<feBlend mode="normal" in2="BackgroundImageFix" result="effect1_dropShadow_18_2"/>
<feBlend mode="normal" in="SourceGraphic" in2="effect1_dropShadow_18_2" result="shape"/>
</filter>
<filter id="filter9_d_18_2" x="356.98" y="538.06" width="48.3" height="12.08" filterUnits="userSpaceOnUse" color-interpolation-filters="sRGB">
<feFlood flood-opacity="0" result="BackgroundImageFix"/>
<feColorMatrix in="SourceAlpha" type="matrix" values="0 0 0 0 0 0 0 0 0 0 0 0 0 0 0 0 0 0 127 0" result="hardAlpha"/>
<feOffset dx="1" dy="1"/>
<feGaussianBlur stdDeviation="0.5"/>
<feColorMatrix type="matrix" values="0 0 0 0 0.147813 0 0 0 0 0.169527 0 0 0 0 0.275 0 0 0 0.32 0"/>
<feBlend mode="normal" in2="BackgroundImageFix" result="effect1_dropShadow_18_2"/>
<feBlend mode="normal" in="SourceGraphic" in2="effect1_dropShadow_18_2" result="shape"/>
</filter>
<filter id="filter10_d_18_2" x="503.26" y="537.92" width="50.2211" height="12.22" filterUnits="userSpaceOnUse" color-interpolation-filters="sRGB">
<feFlood flood-opacity="0" result="BackgroundImageFix"/>
<feColorMatrix in="SourceAlpha" type="matrix" values="0 0 0 0 0 0 0 0 0 0 0 0 0 0 0 0 0 0 127 0" result="hardAlpha"/>
<feOffset dx="1" dy="1"/>
<feGaussianBlur stdDeviation="0.5"/>
<feColorMatrix type="matrix" values="0 0 0 0 0.147813 0 0 0 0 0.169527 0 0 0 0 0.275 0 0 0 0.32 0"/>
<feBlend mode="normal" in2="BackgroundImageFix" result="effect1_dropShadow_18_2"/>
<feBlend mode="normal" in="SourceGraphic" in2="effect1_dropShadow_18_2" result="shape"/>
</filter>
<filter id="filter11_d_18_2" x="651.26" y="537.92" width="50.0434" height="12.22" filterUnits="userSpaceOnUse" color-interpolation-filters="sRGB">
<feFlood flood-opacity="0" result="BackgroundImageFix"/>
<feColorMatrix in="SourceAlpha" type="matrix" values="0 0 0 0 0 0 0 0 0 0 0 0 0 0 0 0 0 0 127 0" result="hardAlpha"/>
<feOffset dx="1" dy="1"/>
<feGaussianBlur stdDeviation="0.5"/>
<feColorMatrix type="matrix" values="0 0 0 0 0.147813 0 0 0 0 0.169527 0 0 0 0 0.275 0 0 0 0.32 0"/>
<feBlend mode="normal" in2="BackgroundImageFix" result="effect1_dropShadow_18_2"/>
<feBlend mode="normal" in="SourceGraphic" in2="effect1_dropShadow_18_2" result="shape"/>
</filter>
<filter id="filter12_d_18_2" x="775.26" y="537.92" width="49.7836" height="12.22" filterUnits="userSpaceOnUse" color-interpolation-filters="sRGB">
<feFlood flood-opacity="0" result="BackgroundImageFix"/>
<feColorMatrix in="SourceAlpha" type="matrix" values="0 0 0 0 0 0 0 0 0 0 0 0 0 0 0 0 0 0 127 0" result="hardAlpha"/>
<feOffset dx="1" dy="1"/>
<feGaussianBlur stdDeviation="0.5"/>
<feColorMatrix type="matrix" values="0 0 0 0 0.147813 0 0 0 0 0.169527 0 0 0 0 0.275 0 0 0 0.32 0"/>
<feBlend mode="normal" in2="BackgroundImageFix" result="effect1_dropShadow_18_2"/>
<feBlend mode="normal" in="SourceGraphic" in2="effect1_dropShadow_18_2" result="shape"/>
</filter>
<linearGradient id="paint0_linear_18_2" x1="662" y1="284.819" x2="662" y2="591" gradientUnits="userSpaceOnUse">
<stop stop-color="#343956"/>
<stop offset="1" stop-color="#3A3F5F" stop-opacity="0"/>
</linearGradient>
<linearGradient id="paint1_linear_18_2" x1="657" y1="312.589" x2="657" y2="5.69642" gradientUnits="userSpaceOnUse">
<stop stop-color="#414769"/>
<stop offset="0.987952" stop-color="#3C4161" stop-opacity="0"/>
</linearGradient>
<linearGradient id="paint2_linear_18_2" x1="1304" y1="405.155" x2="9.99999" y2="405.155" gradientUnits="userSpaceOnUse">
<stop stop-color="#2E334D" stop-opacity="0"/>
<stop offset="0.391808" stop-color="#2E334E"/>
<stop offset="1" stop-color="#21253C" stop-opacity="0"/>
</linearGradient>
<linearGradient id="paint3_linear_18_2" x1="1304" y1="404.443" x2="9.99999" y2="404.443" gradientUnits="userSpaceOnUse">
<stop stop-color="#B3B8D9" stop-opacity="0"/>
<stop offset="0.494792" stop-color="#969EC6" stop-opacity="0.28"/>
<stop offset="1" stop-color="#BCC1E0" stop-opacity="0"/>
</linearGradient>
<radialGradient id="paint4_radial_18_2" cx="0" cy="0" r="1" gradientUnits="userSpaceOnUse" gradientTransform="translate(748.444 213.805) rotate(165.928) scale(514.896 308.274)">
<stop stop-color="#727AF4" stop-opacity="0.56"/>
<stop offset="1" stop-color="#555FEB" stop-opacity="0"/>
</radialGradient>
<linearGradient id="paint5_linear_18_2" x1="9.99999" y1="212.19" x2="800" y2="212.19" gradientUnits="userSpaceOnUse">
<stop stop-color="#636CED" stop-opacity="0"/>
<stop offset="0.515625" stop-color="#555FEB"/>
<stop offset="1" stop-color="#727AF4"/>
</linearGradient>
<linearGradient id="paint6_linear_18_2" x1="9.99999" y1="212.19" x2="800" y2="212.19" gradientUnits="userSpaceOnUse">
<stop stop-color="#636CED" stop-opacity="0"/>
<stop offset="0.432292" stop-color="#555FEB"/>
<stop offset="0.953125" stop-color="#7780FF"/>
</linearGradient>
<linearGradient id="paint7_linear_18_2" x1="748.5" y1="206" x2="748.5" y2="502" gradientUnits="userSpaceOnUse">
<stop stop-color="#4F5799" stop-opacity="0"/>
<stop offset="0.828125" stop-color="#4F5799"/>
</linearGradient>
<linearGradient id="paint8_linear_18_2" x1="586" y1="251" x2="690.213" y2="355.644" gradientUnits="userSpaceOnUse">
<stop stop-color="#434B7D" stop-opacity="0.64"/>
<stop offset="1" stop-color="#3A3F5E" stop-opacity="0.74"/>
</linearGradient>
<linearGradient id="paint9_linear_18_2" x1="586" y1="251" x2="627.739" y2="334.823" gradientUnits="userSpaceOnUse">
<stop offset="0.125" stop-color="#5D658E" stop-opacity="0.42"/>
<stop offset="1" stop-color="#23273E" stop-opacity="0"/>
</linearGradient>
<linearGradient id="paint10_linear_18_2" x1="725" y1="321" x2="671.269" y2="240.478" gradientUnits="userSpaceOnUse">
<stop stop-color="#2D334E" stop-opacity="0.38"/>
<stop offset="0.833333" stop-color="#30354F" stop-opacity="0"/>
</linearGradient>
</defs>
</svg>
